<svg xmlns="http://www.w3.org/2000/svg" version="1.1" xmlns:xlink="http://www.w3.org/1999/xlink" xmlns:svgjs="http://svgjs.dev/svgjs" viewBox="0 0 800 800"><g stroke-width="4.5" stroke="#4c5e74" fill="none" stroke-linecap="round"><path d="M379.02 34.61C384.99 36.26 390.88 38.06 396.69 39.97 402.49 41.81 408.22 43.69 413.87 45.6 422.31 48.22 438.91 52.96 447.11 55.01 455.35 56.67 471.92 59.37 480.35 60.48 486.09 61.06 491.92 61.66 497.85 62.29 503.93 62.84 510.15 63.47 516.53 64.21 523.09 64.93 529.84 65.81 536.79 66.87 543.93 67.98 551.3 69.31 558.88 70.87 566.63 72.53 574.59 74.46 582.73 76.66 590.99 79.01 599.38 81.64 607.86 84.54 624.79 90.87 641.47 98.32 657.29 106.77 671.7 115.83 684.07 125.73 693.69 136.34 700.58 147.29 704.09 158.72 704.16 170.51 701.98 182.34 697.46 194.36 691.65 206.47 688.98 212.48 686.47 218.49 684.32 224.51 682.87 230.48 682.11 236.45 682.18 242.41 683.36 248.32 685.58 254.22 688.92 260.13 693.49 265.98 699.18 271.83 705.91 277.68 713.64 283.48 722.15 289.3 731.26 295.13 740.76 300.92 750.38 306.72 759.81 312.56 768.84 318.36 777.12 324.2 784.37 330.07 790.46 335.92 795.07 341.82 798.03 347.77 799.38 353.7 798.94 359.69 796.72 365.74 793.02 371.78 787.79 377.89 781.27 384.07 773.94 390.25 765.92 396.5 757.56 402.83 749.45 409.16 741.75 415.57 734.81 422.06 729.15 428.55 724.88 435.05 722.16 441.54 721.2 448.04 721.87 454.54 724.09 461.03 727.87 467.52 732.85 474 738.75 480.45 745.49 486.9 752.52 493.33 759.53 499.72 766.4 506.09 772.6 512.41 777.86 518.67 782.15 524.9 785.07 531.06 786.49 537.12 786.5 543.14 784.9 549.05 781.74 554.83 777.22 560.54 771.34 566.11 764.28 571.52 756.3 576.83 747.55 581.96 738.27 586.88 728.71 591.7 719.08 596.28 709.58 600.63 700.45 604.85 691.82 608.81 683.84 612.49 676.66 616.04 670.33 619.32 664.87 622.3 653.35 635.14 656.15 646.71 654.17 650.57 650.61 654.54 644.66 659.48 636.48 665.69 631.79 669.49 626.62 673.65 621.03 678.2 615.11 683.2 608.85 688.56 602.29 694.27 595.5 700.37 588.5 706.75 581.34 713.37 574.03 720.22 566.63 727.2 559.17 734.22 551.65 741.29 544.11 748.24 536.6 755 529.07 761.55 521.59 767.74 514.19 773.46 506.8 778.75 499.49 783.42 492.28 787.39 485.1 790.74 478.02 793.28 471.05 794.97 464.1 795.93 457.26 796 450.52 795.19 443.8 793.68 437.17 791.34 430.65 788.21 424.14 784.56 417.71 780.26 411.37 775.42 405.04 770.33 398.79 764.91 392.62 759.27 386.45 753.74 380.42 748.3 374.54 743.06 368.65 738.26 362.9 733.85 357.28 729.9 348.91 725.26 332.78 720.05 325.01 719.49 317.33 720.53 302.46 725.67 295.25 729.33 288.06 733.58 273.93 741.98 266.95 745.63 259.87 748.63 245.63 751.7 238.4 751.51 230.97 750.01 215.72 743.11 207.87 737.78 197.02 728.94 186.03 718.13 174.97 705.76 163.69 692.39 152.61 678.14 141.93 663.41 131.53 648.58 121.87 633.8 113.13 619.31 105.07 605.29 98.07 591.77 92.17 578.81 89.43 572.56 86.93 566.45 84.65 560.47 82.45 554.64 80.41 548.91 78.53 543.29 75.74 535.1 70.43 519.21 67.79 511.44 64.95 503.81 59.02 488.61 55.96 480.97 52.74 473.34 46.51 457.81 43.63 449.86 40.92 441.85 36.62 425.35 35.12 416.85 34.33 411.15 33.81 405.35 33.56 399.45 33.43 393.54 33.56 387.53 33.96 381.43 34.44 375.32 35.15 369.19 36.05 363.04 36.97 356.89 38.05 350.73 39.26 344.57 40.42 338.42 41.66 332.26 42.98 326.12 44.18 319.99 45.43 313.88 46.7 307.8 47.84 301.74 49 295.72 50.18 289.75 51.24 283.8 52.33 277.92 53.48 272.1 55.14 263.47 59 246.73 61.34 238.67 64 230.8 70.73 215.83 74.87 208.76 79.53 201.94 90.39 189.22 96.5 183.33 105.07 175.75 114.21 168.82 123.69 162.53 132.95 156.31 142.18 150.58 151.26 145.27 159.69 139.76 167.88 134.45 175.86 129.24 183.23 123.52 190.56 117.69 197.97 111.7 203.4 106.78 214.59 96.41 220.43 90.97 226.41 85.29 239.12 73.74 245.87 67.98 250.47 64.13 255.21 60.38 260.1 56.76 265.04 53.19 270.11 49.79 275.32 46.61 280.57 43.54 285.94 40.73 291.41 38.2 296.92 35.86 302.53 33.83 308.21 32.15 313.93 30.68 319.71 29.57 325.55 28.83 331.41 28.3 337.31 28.14 343.23 28.34 349.17 28.72 355.13 29.43 361.1 30.45 367.07 31.59 373.05 32.98 379.01 34.61" stroke-dasharray="18 14" transform="rotate(0, 400, 400)" opacity="0.39"></path><path d="M377.6 48.54C383.32 50.21 389.01 52.01 394.68 53.92 400.36 55.77 406.01 57.67 411.65 59.58 417.3 61.36 422.95 63.12 428.6 64.83 434.27 66.36 439.96 67.83 445.68 69.23 457.25 71.39 469.06 73.3 481.21 75.04 493.73 76.13 506.78 77.31 520.43 78.73 534.56 80 549.35 81.87 564.72 84.46 580.34 87.39 596.22 91.3 612.01 96.21 627.27 101.73 641.66 108.32 654.61 115.91 665.84 124.09 674.73 133.16 680.84 142.99 684.56 153.22 685.37 164.03 683.49 175.28 680.3 186.7 675.81 198.39 671.06 210.25 667.95 222.09 666.86 234.01 668.84 245.96 675.02 257.77 685.14 269.6 698.93 281.43 715.69 293.11 733.82 304.82 751.46 316.57 766.95 328.21 778.24 339.95 783.81 351.81 784.41 357.71 783.38 363.65 780.76 369.63 776.84 375.6 771.59 381.62 765.23 387.69 758.19 393.75 750.58 399.86 742.71 406.02 735.09 412.18 727.87 418.39 721.34 424.65 715.96 430.92 711.84 437.16 709.11 443.37 707.97 449.59 708.3 455.77 710.05 461.92 713.25 468.06 717.58 474.17 722.82 480.22 728.9 486.26 735.36 492.25 741.91 498.17 754.77 509.94 764.75 521.38 770.22 532.37 770.88 543.18 765.78 553.42 755.47 562.97 741.27 572.21 724.24 580.64 706.01 588.15 688.16 595.27 671.86 601.42 658.03 606.57 643.61 613.36 633 622.95 633.26 626.72 634.73 631.43 630.93 645.26 623.75 655.77 616.97 664.82 608.38 675.15 598.27 686.64 587.16 699.34 574.99 712.63 562.09 726.04 548.72 739.31 535.02 751.62 521.24 762.3 507.34 771.2 493.57 777.47 480.03 780.69 473.28 781.3 466.6 781.1 459.99 780.09 453.4 778.46 446.89 776.08 440.46 772.99 434.05 769.43 427.71 765.29 421.46 760.67 415.22 755.83 409.06 750.68 402.97 745.34 396.89 740.09 390.95 734.91 385.16 729.9 379.36 725.28 373.69 721 368.16 717.13 359.89 712.45 343.94 706.73 336.22 705.72 325.9 706.66 315.92 709.28 306.24 713.11 296.33 718.24 286.58 723.41 276.92 728 266.9 732.19 256.84 734.78 246.69 735.46 236.1 734.6 225.36 731.45 214.49 726.07 203.29 719.02 192.05 709.99 180.92 699.31 169.79 687.51 159.04 674.61 148.86 660.99 139.13 647.01 130.25 632.81 122.38 618.63 115.19 604.66 109.05 590.99 103.94 577.72 99.27 564.92 95.34 552.54 91.97 540.58 88.45 529.08 85.09 517.89 81.78 506.92 77.85 496.29 73.83 485.74 69.76 475.19 65.22 464.83 60.9 454.35 57.01 443.69 54.22 435.72 49.81 419.47 48.3 411.18 47.27 402.83 46.85 385.76 47.44 377.05 48.02 371.21 48.83 365.38 49.83 359.56 50.87 353.73 52.06 347.92 53.36 342.12 54.62 336.33 55.95 330.56 57.33 324.82 58.6 319.09 59.88 313.4 61.17 307.76 63.31 296.53 65.45 285.53 67.65 274.84 69.48 264.28 71.69 254.11 74.44 244.4 77.43 234.87 81.35 225.86 86.3 217.43 91.9 209.19 98.6 201.54 106.29 194.5 114.5 187.58 123.41 181.21 132.81 175.36 142.17 169.46 151.65 163.94 161.07 158.7 169.99 153.16 178.68 147.72 187.13 142.29 194.96 136.31 202.62 130.19 210.23 123.88 217.39 116.91 224.7 109.75 232.26 102.44 239.65 94.66 247.45 86.93 255.72 79.42 264.01 71.87 272.84 64.9 282.15 58.71 291.57 53.03 301.47 48.46 311.77 45.19 319.58 43.38 335.65 41.82 343.88 42.05 352.17 42.89 369.04 46.2 377.59 48.54" stroke-dasharray="9 14" transform="rotate(4.04, 400, 400)" opacity="0.64"></path><path d="M380.96 62.48C392.03 65.81 403.22 69.58 414.54 73.53 425.91 76.97 437.49 80.29 449.31 83.39 461.3 85.68 473.66 87.73 486.43 89.57 499.47 90.76 513 91.97 527 93.35 541.23 94.49 555.83 96.12 570.62 98.36 585.27 100.82 599.68 104.14 613.47 108.37 626.35 113.12 637.92 118.87 647.7 125.58 655.72 132.86 661.4 141.03 664.53 150 665.8 159.41 664.82 169.46 661.97 180.02 658.72 190.84 655.09 202.02 652.04 213.45 651.21 224.95 652.76 236.61 657.44 248.35 665.94 260.05 677.8 271.79 692.52 283.54 709.27 295.2 726.53 306.88 742.6 318.58 756.13 330.2 765.4 341.87 769.23 353.58 767.8 365.25 760.8 377.01 749.21 388.86 735.49 400.69 720.95 412.63 707.86 424.66 698.92 436.68 694.9 448.51 696.12 460.09 702.67 471.65 712.71 482.92 724.45 493.83 736.72 504.66 746.87 515.06 753.35 524.94 755.81 534.64 753.09 543.73 745.43 552.11 733.84 560.22 718.99 567.56 702.23 574.05 684.97 580.27 668.29 585.65 653.19 590.21 640.47 594.63 630.36 598.38 622.86 601.59 616.71 606.62 613.72 617.6 613.19 624.86 612.51 631.19 610.52 638.52 607.04 646.94 602.63 656.77 596.58 667.65 589.03 679.41 580.56 692.02 570.86 704.93 560.19 717.67 548.94 730.04 537.05 741.28 524.78 750.81 512.27 758.59 499.61 763.85 486.94 766.25 474.23 766.26 461.63 763.37 449.22 757.76 436.83 750.52 424.64 741.51 412.69 731.4 400.74 721.62 389.27 712.41 378.26 704.37 367.19 698.39 356.51 694.28 346.16 692.12 335.67 692.34 325.43 694.15 315.37 697.16 305.07 701.53 294.84 706.13 284.61 710.41 274.07 714.57 263.45 717.49 252.73 718.83 241.7 718.97 230.58 717.09 219.43 713.19 208.14 707.79 196.98 700.48 186.1 691.51 175.42 681.37 165.28 670 155.86 657.71 147 644.87 139.07 631.56 132.16 618.03 125.91 604.5 120.63 591.05 116.27 577.81 112.22 564.86 108.76 552.23 105.72 539.94 102.39 528 99.11 516.37 95.76 505 91.76 493.92 87.61 483 83.39 472.19 78.72 461.56 74.26 450.93 70.26 440.25 66.41 429.65 63.42 418.93 61.46 408.08 60.11 397.25 59.94 386.24 60.91 375.08 62.35 363.92 64.59 352.86 67.4 341.95 70.02 331.06 72.81 320.35 75.61 309.88 77.79 299.47 79.89 289.35 81.97 279.59 83.59 269.93 85.49 260.67 87.84 251.88 90.34 243.23 93.68 235.07 97.99 227.45 102.93 219.95 108.96 212.96 116.04 206.5 123.72 200.07 132.22 194.08 141.35 188.49 150.63 182.74 160.19 177.26 169.83 171.95 179.14 166.28 188.31 160.62 197.27 154.9 205.66 148.63 213.85 142.19 221.88 135.58 229.4 128.37 236.91 121.01 244.51 113.58 251.81 105.76 259.36 98.08 267.23 90.7 274.98 83.38 283.17 76.67 291.79 70.79 300.4 65.46 309.48 61.23 319 58.27 328.53 56.11 338.48 55.29 348.83 55.8 359.17 56.98 369.88 59.25 380.95 62.48" stroke-dasharray="15 19" transform="rotate(8.08, 400, 400)" opacity="0.84"></path><path d="M388.4 76.42C399.2 79.75 410.26 83.5 421.58 87.44 432.94 90.92 444.62 94.3 456.62 97.48 468.74 99.91 481.25 102.09 494.11 104.06 507.11 105.38 520.44 106.66 534.02 108.04 547.57 109.12 561.15 110.58 574.52 112.53 587.44 114.6 599.7 117.42 610.95 121.03 621.11 125.07 629.71 130.02 636.42 135.88 641.57 142.25 644.61 149.51 645.53 157.55 645.24 166.06 643.41 175.25 640.55 185 638.06 195.07 635.95 205.57 635.06 216.4 636.66 227.38 640.79 238.58 647.87 249.93 658.25 261.31 671.33 272.78 686.45 284.28 702.75 295.76 718.81 307.26 733.15 318.77 744.71 330.23 752.05 341.71 754.31 353.19 751.87 364.65 744.53 376.13 733.23 387.61 720.24 399.09 706.63 410.58 694.38 422.07 685.87 433.55 681.75 444.74 682.31 455.59 687.76 466.41 696.54 476.86 707.16 486.88 718.7 496.82 728.78 506.27 735.97 515.15 739.9 523.88 739.28 531.99 734.1 539.41 725.14 546.65 712.69 553.17 697.83 558.95 681.77 564.58 665.43 569.52 649.83 573.83 635.77 578.17 623.69 582.06 613.81 585.63 606.4 589.57 601.01 593.51 597.24 597.63 595.16 602.57 593.76 608.05 592.52 614.23 591.7 621.59 590.21 629.87 587.75 639.09 584.83 649.46 580.62 660.64 575.1 672.42 568.88 684.76 561.43 697.11 552.9 709.05 543.83 720.44 533.92 730.57 523.39 738.97 512.55 745.68 501.31 749.99 489.82 751.66 478.22 751.18 466.51 748.08 454.78 742.53 443.04 735.57 431.33 727.02 419.69 717.47 408.05 708.21 396.74 699.41 385.74 691.62 374.7 685.64 363.91 681.3 353.34 678.69 342.64 678.25 332.08 679.3 321.59 681.51 310.91 685.11 300.23 689.07 289.52 692.93 278.59 696.91 267.58 699.96 256.53 701.76 245.32 702.65 234.13 701.82 223.04 699.21 212.01 695.29 201.26 689.59 190.96 682.27 181.03 673.81 171.76 664.04 163.31 653.22 155.48 641.73 148.59 629.58 142.68 617.01 137.35 604.24 132.88 591.34 129.19 578.48 125.65 565.73 122.54 553.16 119.69 540.83 116.44 528.74 113.13 516.9 109.68 505.32 105.53 493.97 101.22 482.82 96.82 471.83 92.02 461 87.46 450.25 83.37 439.57 79.5 428.96 76.52 418.35 74.6 407.72 73.35 397.11 73.28 386.44 74.39 375.73 75.99 365.02 78.4 354.51 81.37 344.24 84.16 333.98 87.09 323.98 89.99 314.27 92.25 304.61 94.37 295.27 96.39 286.33 97.88 277.45 99.55 268.99 101.55 260.98 103.6 253.05 106.39 245.58 110.05 238.59 114.28 231.64 119.58 225.14 125.92 219.07 132.92 212.93 140.84 207.13 149.5 201.63 158.48 195.89 167.9 190.32 177.57 184.84 187.09 178.94 196.6 173 206 166.97 214.95 160.4 223.71 153.66 232.28 146.77 240.35 139.37 248.32 131.88 256.26 124.38 263.81 116.61 271.48 109.05 279.34 101.86 286.97 94.8 294.92 88.42 303.21 82.88 311.4 77.91 320.01 74.04 329.05 71.39 338.04 69.52 347.48 68.92 357.38 69.58 367.25 70.86 377.58 73.19 388.39 76.41" stroke-dasharray="0 17" transform="rotate(12.12, 400, 400)" opacity="0.83"></path><path d="M398.31 90.35C408.9 93.67 419.78 97.39 430.95 101.32 442.16 104.82 453.69 108.25 465.51 111.51 477.38 114.06 489.54 116.38 501.92 118.5 514.29 119.95 526.78 121.35 539.22 122.77 551.43 123.84 563.35 125.2 574.72 126.94 585.44 128.71 595.23 131.1 603.77 134.18 611.23 137.58 617.1 141.81 621.21 146.85 624.1 152.36 625.29 158.7 624.9 165.81 623.97 173.37 622.21 181.63 620.15 190.48 619.07 199.68 618.93 209.37 620.39 219.45 624.41 229.73 630.86 240.31 639.93 251.09 651.68 261.96 665.44 272.97 680.47 284.06 695.94 295.17 710.56 306.33 723.06 317.49 732.67 328.65 738.21 339.81 739.07 350.93 735.78 362.06 728.22 373.16 717.29 384.2 705.04 395.25 692.35 406.25 680.9 417.16 672.82 428.06 668.62 438.6 668.6 448.74 673.03 458.86 680.6 468.54 690.08 477.75 700.78 486.89 710.58 495.51 718.18 503.56 723.24 511.51 724.41 518.86 721.5 525.57 715.06 532.18 705.1 538.16 692.43 543.53 678.06 548.87 662.73 553.69 647.35 558.06 632.73 562.59 619.39 566.86 607.71 571.01 598.04 575.63 590.23 580.4 584.08 585.49 579.72 591.4 576.42 597.88 573.74 605.06 571.91 613.27 569.99 622.28 567.62 632.06 565.26 642.74 562.02 653.98 557.79 665.56 553.14 677.43 547.42 689.08 540.68 700.12 533.51 710.47 525.43 719.5 516.58 726.8 507.45 732.48 497.72 735.92 487.53 736.93 477.21 736.02 466.56 732.75 455.68 727.31 444.76 720.64 433.68 712.54 422.48 703.53 411.28 694.79 400.22 686.41 389.31 678.87 378.37 672.94 367.55 668.42 356.81 665.42 345.99 664.39 335.2 664.72 324.43 666.17 313.53 668.99 302.6 672.27 291.65 675.63 280.58 679.3 269.5 682.31 258.46 684.35 247.42 685.77 236.53 685.76 225.88 684.22 215.46 681.59 205.46 677.33 196.04 671.55 187.1 664.72 178.91 656.55 171.57 647.28 164.84 637.27 159 626.45 154.07 615.06 149.58 603.32 145.81 591.28 142.65 579.1 139.48 566.88 136.58 554.69 133.8 542.62 130.51 530.67 127.08 518.9 123.43 507.34 119.11 495.94 114.6 484.72 110.04 473.7 105.12 462.81 100.49 452.05 96.36 441.42 92.52 430.86 89.58 420.37 87.74 409.96 86.59 399.58 86.64 389.23 87.87 378.93 89.61 368.63 92.16 358.63 95.27 348.92 98.21 339.22 101.28 329.83 104.31 320.79 106.68 311.76 108.87 303.1 110.89 294.84 112.32 286.6 113.83 278.78 115.56 271.38 117.22 264.01 119.5 257.04 122.54 250.51 126.06 243.93 130.58 237.72 136.11 231.85 142.32 225.84 149.49 220.08 157.49 214.52 165.95 208.68 175 202.91 184.44 197.17 193.94 191 203.58 184.76 213.24 178.4 222.6 171.55 231.85 164.56 240.95 157.45 249.62 149.92 258.15 142.37 266.59 134.88 274.64 127.23 282.7 119.85 290.83 112.91 298.68 106.18 306.73 100.16 315.02 95 323.16 90.41 331.63 86.9 340.47 84.57 349.22 82.98 358.41 82.59 368.04 83.39 377.63 84.77 387.71 87.13 398.3 90.35" stroke-dasharray="27 22" transform="rotate(16.16, 400, 400)" opacity="0.74"></path><path d="M408.59 104.29C418.94 107.58 429.55 111.26 440.38 115.16 451.23 118.67 462.3 122.14 473.55 125.46 484.8 128.13 496.16 130.59 507.53 132.85 518.79 134.47 529.91 135.99 540.72 137.51 551.17 138.62 561.06 139.94 570.16 141.55 578.58 143.1 585.91 145.15 591.96 147.79 598.92 152.44 604.5 165.96 603.84 174.89 603.12 181.5 602.2 188.8 601.58 196.71 602.34 204.97 604.38 213.75 608.18 222.96 614.39 232.42 622.79 242.22 633.36 252.27 645.95 262.48 659.87 272.86 674.36 283.36 688.66 293.94 701.66 304.58 712.29 315.25 720.02 325.95 723.9 336.65 723.54 347.31 719.56 357.98 711.9 368.6 701.39 379.14 689.88 389.69 678.08 400.14 667.42 410.44 659.77 420.75 655.54 430.66 655 440.13 658.49 449.58 664.9 458.58 673.24 467.09 683.01 475.56 692.34 483.51 700.08 490.92 705.95 498.27 708.57 505.08 707.63 511.34 703.55 517.56 696.06 523.28 685.74 528.52 673.41 533.84 659.6 538.78 645.1 543.45 630.67 548.37 616.82 553.2 604.05 558.05 592.72 563.44 582.92 569.07 574.63 575.09 567.99 581.88 562.56 589.24 558.06 597.23 554.63 606.09 551.55 615.6 548.49 625.69 545.79 636.43 542.66 647.51 538.91 658.69 535.05 669.92 530.38 680.75 524.85 690.82 519.05 700.11 512.4 708.04 504.98 714.27 497.32 719 488.97 721.64 480.03 722.06 470.97 720.79 461.42 717.41 451.45 712.09 441.45 705.72 431.1 698.08 420.46 689.59 409.81 681.36 399.14 673.4 388.47 666.14 377.79 660.28 367.09 655.63 356.37 652.31 345.64 650.75 334.86 650.43 324.05 651.15 313.22 653.21 302.35 655.79 291.5 658.58 280.66 661.83 269.88 664.65 259.25 666.76 248.76 668.49 238.53 669.07 228.69 668.36 219.18 666.8 210.22 663.79 201.91 659.4 194.12 654.06 187.09 647.45 180.92 639.7 175.26 631.22 170.42 621.84 166.35 611.78 162.57 601.27 159.34 590.32 156.55 579.07 153.59 567.67 150.76 556.14 147.91 544.61 144.49 533.1 140.85 521.67 136.97 510.37 132.43 499.16 127.74 488.1 123.02 477.22 118.02 466.43 113.35 455.79 109.24 445.31 105.46 434.89 102.61 424.59 100.87 414.43 99.84 404.29 100.01 394.25 101.35 384.34 103.21 374.43 105.87 364.87 109.09 355.65 112.17 346.43 115.38 337.57 118.53 329.08 121.04 320.58 123.34 312.46 125.42 304.73 126.87 296.99 128.29 289.64 129.84 282.68 131.2 275.68 133.05 269.05 135.53 262.78 138.37 256.4 142.11 250.32 146.8 244.5 152.13 238.47 158.43 232.62 165.61 226.9 173.34 220.85 181.77 214.83 190.74 208.79 199.93 202.34 209.42 195.79 219.07 189.14 228.62 182.06 238.16 174.87 247.64 167.62 256.8 160.04 265.86 152.51 274.82 145.12 283.43 137.65 291.99 130.53 300.55 123.9 308.83 117.54 317.2 111.91 325.72 107.15 334.06 102.96 342.63 99.82 351.49 97.8 360.25 96.48 369.36 96.3 378.86 97.24 388.32 98.7 398.22 101.09 408.58 104.28" stroke-dasharray="22 17" transform="rotate(20.200000000000003, 400, 400)" opacity="0.79"></path><path d="M417.02 118.22C427.08 121.48 437.27 125.11 447.55 128.96 457.83 132.47 468.19 135.96 478.54 139.34 488.84 142.12 499.06 144.71 509.08 147.11 518.91 148.9 528.38 150.58 537.33 152.21 545.88 153.41 553.71 154.75 560.62 156.3 569.55 158.62 580.71 165.74 582.96 170.93 583.83 177.22 583.99 193.76 585.45 203.89 588.22 211.18 592.43 219 598.38 227.28 606.42 235.82 616.3 244.73 627.81 253.95 640.71 263.34 654.31 272.97 667.88 282.75 680.78 292.63 692.04 302.62 700.8 312.66 706.76 322.76 709.15 332.88 707.74 342.96 703.23 353.07 695.58 363.13 685.54 373.09 674.78 383.06 663.85 392.93 653.95 402.63 646.72 412.33 642.48 421.63 641.5 430.5 644.13 439.35 649.44 447.76 656.65 455.7 665.42 463.62 674.13 471.06 681.78 478.03 688.14 484.97 691.87 491.46 692.59 497.49 690.6 503.56 685.46 509.24 677.5 514.59 667.43 520.07 655.52 525.34 642.45 530.46 628.87 535.91 615.26 541.38 602.13 546.99 589.86 553.12 578.68 559.57 568.7 566.41 560.09 573.96 552.66 582.01 546.24 590.58 540.95 599.86 536.28 609.63 531.97 619.78 528.28 630.36 524.53 641.06 520.52 651.66 516.67 662.14 512.31 672.05 507.34 681.1 502.28 689.32 496.53 696.17 490.08 701.4 483.5 705.24 476.23 707.16 468.35 707.06 460.36 705.49 451.8 702.04 442.73 696.87 433.62 690.81 424.05 683.62 414.06 675.66 404.07 667.91 393.93 660.38 383.67 653.41 373.43 647.66 363.08 642.93 352.66 639.35 342.25 637.33 331.79 636.41 321.29 636.47 310.85 637.79 300.41 639.66 290.04 641.84 279.8 644.58 269.7 647.08 259.85 649.09 250.25 650.95 241.01 651.9 232.25 651.8 223.89 651.06 216.12 649.09 209.05 645.89 202.45 641.89 196.6 636.69 191.53 630.4 186.85 623.41 182.86 615.5 179.49 606.83 176.23 597.68 173.36 587.96 170.76 577.84 167.85 567.46 164.93 556.85 161.91 546.1 158.26 535.28 154.36 524.43 150.21 513.64 145.46 502.86 140.6 492.17 135.75 481.62 130.72 471.12 126.07 460.75 122.01 450.54 118.34 440.37 115.62 430.35 114 420.49 113.11 410.64 113.39 400.94 114.83 391.4 116.79 381.86 119.54 372.69 122.84 363.9 126.04 355.1 129.36 346.66 132.64 338.6 135.31 330.52 137.75 322.8 139.94 315.46 141.47 308.08 142.9 301.04 144.34 294.35 145.51 287.59 147.01 281.13 149.02 274.95 151.25 268.64 154.27 262.55 158.13 256.64 162.55 250.5 167.91 244.47 174.16 238.5 180.99 232.22 188.59 225.92 196.84 219.58 205.44 212.86 214.49 206.05 223.84 199.16 233.26 191.92 242.81 184.61 252.4 177.3 261.84 169.77 271.23 162.34 280.56 155.13 289.64 147.93 298.66 141.13 307.64 134.86 316.39 128.91 325.15 123.7 333.98 119.36 342.64 115.58 351.44 112.81 360.42 111.11 369.31 110.05 378.45 110.06 387.86 111.12 397.24 112.66 406.96 115.06 417.01 118.22" stroke-dasharray="11 18" transform="rotate(24.24, 400, 400)" opacity="0.87"></path><path d="M421.82 132.16C431.48 135.36 441.11 138.93 450.67 142.73 460.22 146.21 469.67 149.71 478.93 153.13 488.1 156 497.01 158.72 505.53 161.26 513.85 163.22 521.64 165.06 528.79 166.84 538.58 168.87 553.2 173.31 557.8 176.18 560.98 179.55 564.02 189.29 565.14 195.82 566.73 200.67 568.96 206.13 572.15 212.17 576.91 218.5 583.07 225.35 590.78 232.68 600.2 240.25 611.01 248.23 622.92 256.54 635.63 265.03 648.49 273.79 660.83 282.75 672.16 291.83 681.63 301.06 688.58 310.37 692.91 319.75 693.99 329.18 691.7 338.6 686.82 348.06 679.27 357.48 669.74 366.82 659.74 376.18 649.64 385.43 640.47 394.54 633.67 403.65 629.46 412.37 628.09 420.71 629.94 429.03 634.23 436.95 640.34 444.45 648.08 451.95 656.05 459.04 663.39 465.74 669.94 472.44 674.45 478.79 676.49 484.79 676.29 490.88 673.26 496.7 667.59 502.3 659.83 508.09 650.05 513.79 638.78 519.45 626.61 525.46 613.89 531.59 601.12 537.91 588.66 544.72 576.81 551.86 565.78 559.37 555.73 567.47 546.67 575.99 538.54 584.93 531.45 594.38 525.09 604.15 519.29 614.13 514.2 624.34 509.35 634.49 504.54 644.37 500.08 653.97 495.4 662.91 490.37 670.92 485.43 678.07 480.01 683.9 474.05 688.19 468.05 691.21 461.47 692.49 454.33 691.95 447.13 690.14 439.37 686.67 431.08 681.67 422.76 675.93 413.94 669.18 404.66 661.72 395.38 654.46 385.87 647.35 376.21 640.69 366.58 635.07 356.8 630.31 346.95 626.52 337.15 624.11 327.29 622.68 317.45 622.12 307.71 622.74 298.04 623.93 288.52 625.47 279.18 627.64 270.07 629.73 261.3 631.51 252.82 633.31 244.78 634.43 237.27 634.72 230.15 634.58 223.63 633.41 217.79 631.18 212.34 628.31 207.55 624.36 203.43 619.39 199.55 613.8 196.21 607.3 193.32 600.01 190.38 592.24 187.66 583.84 185.07 574.95 182.06 565.75 178.94 556.21 175.64 546.43 171.71 536.51 167.52 526.47 163.11 516.37 158.17 506.25 153.16 496.13 148.24 486.09 143.23 476.06 138.64 466.12 134.69 456.31 131.17 446.52 128.61 436.86 127.14 427.36 126.39 417.88 126.79 408.53 128.3 399.36 130.35 390.19 133.16 381.39 136.52 372.96 139.8 364.51 143.23 356.42 146.63 348.69 149.46 340.92 152.06 333.5 154.4 326.4 156.07 319.25 157.58 312.4 159.01 305.84 160.07 299.18 161.35 292.77 162.99 286.57 164.72 280.21 167.09 274.01 170.19 267.93 173.74 261.62 178.15 255.36 183.41 249.13 189.23 242.6 195.85 236.04 203.18 229.43 210.95 222.5 219.27 215.5 228.02 208.46 236.98 201.13 246.2 193.81 255.58 186.54 264.97 179.14 274.41 171.91 283.85 164.96 293.17 158.09 302.45 151.68 311.69 145.83 320.78 140.33 329.85 135.56 338.92 131.65 347.87 128.29 356.87 125.88 365.95 124.48 374.96 123.68 384.11 123.87 393.41 125.03 402.68 126.63 412.15 129.04 421.81 132.16" stroke-dasharray="15 6" transform="rotate(28.28, 400, 400)" opacity="0.86"></path><path d="M421.95 146.1C431.1 149.23 440.07 152.73 448.82 156.45 457.53 159.91 465.98 163.4 474.1 166.83 482.13 169.78 489.74 172.61 496.85 175.28 506.94 178.41 523.47 183.6 529.66 185.97 538.02 190.95 546.26 202.12 549.45 207.68 552.68 211.78 556.72 216.44 561.8 221.62 568.3 227.05 576.04 232.99 585.04 239.38 595.3 246 606.5 253.02 618.29 260.4 630.37 267.96 642.15 275.81 653.04 283.89 662.69 292.1 670.4 300.49 675.65 309 678.5 317.59 678.45 326.26 675.47 334.96 670.34 343.71 662.98 352.45 654.01 361.14 644.74 369.85 635.46 378.49 626.99 387.02 620.61 395.55 616.46 403.76 614.77 411.62 615.93 419.48 619.27 427 624.33 434.19 631.02 441.38 638.16 448.25 645.01 454.81 651.5 461.41 656.47 467.75 659.48 473.86 660.72 480.08 659.52 486.13 655.93 492.08 650.41 498.25 642.84 504.4 633.62 510.61 623.24 517.15 611.93 523.86 600.13 530.78 588.19 538.14 576.4 545.79 565.01 553.77 554.19 562.2 544.07 570.96 534.7 580 526.14 589.4 518.28 598.95 511.04 608.54 504.48 618.2 498.33 627.64 492.44 636.68 486.98 645.35 481.55 653.28 476.02 660.24 470.69 666.37 465.1 671.23 459.18 674.65 453.31 676.93 447.03 677.64 440.3 676.74 433.56 674.74 426.35 671.28 418.67 666.48 410.98 661.06 402.84 654.74 394.26 647.79 385.68 641 376.89 634.31 367.96 627.97 359.07 622.52 350.05 617.77 340.99 613.83 332 611.1 323.01 609.21 314.09 608.1 305.3 608.08 296.65 608.61 288.22 609.51 279.99 611.09 272.07 612.69 264.54 614.13 257.3 615.72 250.52 616.83 244.28 617.32 235.69 617.25 221.85 612.05 216.49 606.77 213.18 602.42 210.25 597.21 207.61 591.23 204.78 584.8 202.03 577.71 199.27 570.08 196.03 562.13 192.62 553.76 188.98 545.06 184.74 536.18 180.27 527.09 175.61 517.86 170.52 508.55 165.43 499.17 160.5 489.79 155.56 480.39 151.09 471.02 147.3 461.73 143.97 452.45 141.6 443.26 140.28 434.19 139.69 425.13 140.2 416.18 141.78 407.39 143.88 398.59 146.73 390.14 150.12 382.03 153.47 373.9 156.98 366.1 160.49 358.61 163.47 351.09 166.25 343.86 168.76 336.91 170.61 329.9 172.26 323.14 173.77 316.6 174.83 309.96 176 303.5 177.4 297.2 178.75 290.74 180.6 284.38 183.04 278.1 185.8 271.6 189.31 265.12 193.6 258.64 198.38 251.9 203.94 245.13 210.22 238.33 216.97 231.26 224.34 224.16 232.22 217.06 240.42 209.77 248.99 202.53 257.83 195.41 266.81 188.23 275.94 181.29 285.16 174.68 294.38 168.22 303.63 162.23 312.86 156.84 322.03 151.81 331.19 147.51 340.31 144.04 349.37 141.08 358.42 139.03 367.47 137.93 376.48 137.37 385.53 137.73 394.6 138.99 403.67 140.64 412.78 143.03 421.94 146.09" stroke-dasharray="7 15" transform="rotate(32.32, 400, 400)" opacity="0.72"></path><path d="M417.38 160.03C425.94 163.1 434.19 166.51 442.09 170.14 449.97 173.54 457.47 177.01 464.54 180.44 471.52 183.45 478.02 186.36 483.99 189.15 492.44 192.53 506.11 198.22 511.32 200.76 519.6 205.66 531.48 215.61 537.01 220.39 541.87 223.86 547.58 227.83 554.26 232.27 562.1 236.89 570.94 241.98 580.69 247.51 591.26 253.22 602.32 259.33 613.54 265.81 624.62 272.43 635.07 279.37 644.37 286.57 652.31 293.88 658.32 301.41 662 309.1 663.56 316.87 662.57 324.75 659.06 332.71 653.81 340.71 646.73 348.75 638.33 356.79 629.81 364.85 621.3 372.89 613.51 380.86 607.55 388.84 603.49 396.57 601.54 404.03 602.08 411.5 604.56 418.7 608.62 425.65 614.28 432.62 620.52 439.35 626.75 445.88 632.95 452.46 638.08 458.87 641.72 465.15 644.05 471.55 644.34 477.89 642.56 484.2 639.09 490.71 633.67 497.29 626.56 503.97 618.19 510.94 608.66 518.09 598.31 525.45 587.49 533.17 576.41 541.14 565.34 549.34 554.48 557.89 543.97 566.64 533.95 575.55 524.46 584.66 515.54 593.79 507.16 602.81 499.36 611.76 492.01 620.39 485.02 628.51 478.46 636.19 472.1 643.1 465.83 649.04 459.82 654.19 453.75 658.15 447.55 660.78 441.46 662.41 435.14 662.63 428.54 661.43 421.97 659.29 415.07 655.88 407.83 651.3 400.59 646.21 393.01 640.32 385.08 633.85 377.16 627.53 369.11 621.25 360.98 615.24 352.87 609.99 344.73 605.29 336.6 601.27 328.55 598.28 320.56 596.01 312.72 594.42 305 593.81 297.49 593.72 290.26 594.01 283.22 594.97 276.53 596.04 270.25 597.06 261.4 598.82 246.47 600.07 240.43 598.98 235.04 596.64 226.06 587.37 222.06 580.51 219.13 575.32 216.18 569.47 213.13 563.05 209.57 556.34 205.81 549.15 201.82 541.58 197.28 533.81 192.56 525.76 187.71 517.48 182.52 509.11 177.41 500.59 172.53 491.99 167.73 483.34 163.44 474.66 159.85 466 156.75 457.32 154.59 448.67 153.45 440.1 153.01 431.53 153.62 423.04 155.26 414.64 157.4 406.24 160.26 398.14 163.65 390.32 167.04 382.49 170.61 374.93 174.2 367.64 177.33 360.31 180.27 353.22 182.97 346.36 185.04 339.44 186.87 332.7 188.53 326.14 189.69 319.47 190.86 312.93 192.14 306.5 193.26 299.92 194.73 293.4 196.65 286.93 198.75 280.27 201.48 273.61 204.87 266.95 208.66 260.08 213.16 253.18 218.36 246.28 223.99 239.18 230.27 232.09 237.1 225.05 244.29 217.89 251.94 210.84 259.95 203.97 268.18 197.12 276.67 190.54 285.32 184.35 294.09 178.34 302.95 172.84 311.85 167.93 320.77 163.4 329.71 159.58 338.61 156.54 347.51 153.99 356.37 152.29 365.19 151.46 374 151.13 382.76 151.64 391.46 152.98 400.17 154.66 408.82 157.03 417.37 160.03" stroke-dasharray="28 11" transform="rotate(36.36, 400, 400)" opacity="0.26"></path><path d="M409.1 173.97C417 176.95 424.53 180.25 431.66 183.79 438.76 187.12 445.44 190.54 451.67 193.96 460.68 198.5 476.15 206.47 482.58 209.9 493.53 215.23 508.15 223.07 513.52 226.22 517.81 228.39 522.59 230.92 527.99 233.83 534.26 236.81 541.31 240.21 549.15 244.02 557.85 247.96 567.24 252.32 577.19 257.08 587.55 261.97 598.02 267.26 608.28 272.89 618.1 278.65 627.04 284.73 634.69 291.08 640.98 297.52 645.39 304.21 647.69 311.09 648.14 318.04 646.39 325.14 642.52 332.37 637.27 339.63 630.52 346.98 622.73 354.39 614.92 361.8 607.17 369.26 600.03 376.72 594.48 384.18 590.54 391.47 588.39 398.58 588.4 405.69 590.1 412.63 593.23 419.4 597.88 426.19 603.19 432.85 608.69 439.37 614.43 445.96 619.46 452.48 623.42 458.93 626.47 465.51 627.9 472.08 627.61 478.69 625.91 485.49 622.45 492.38 617.37 499.39 611.07 506.65 603.49 514.07 594.9 521.67 585.63 529.53 575.79 537.58 565.65 545.78 555.4 554.2 545.18 562.73 535.15 571.28 525.39 579.91 515.97 588.44 506.96 596.74 498.35 604.88 490.13 612.6 482.28 619.76 474.79 626.45 467.58 632.35 460.58 637.32 453.83 641.55 447.17 644.68 440.55 646.6 434.06 647.66 427.51 647.47 420.86 646.03 414.25 643.81 407.48 640.49 400.53 636.14 393.59 631.38 386.44 625.91 379.1 619.92 371.75 614.05 364.39 608.19 357.05 602.52 349.73 597.47 342.46 592.88 335.29 588.82 328.19 585.64 321.23 583.07 314.48 581.07 307.83 579.94 301.44 579.28 295.37 579 286.65 579.61 271.37 581.63 264.89 582.34 254.07 581.54 240.52 573.42 236.31 568.02 233.13 563.9 229.86 559.15 226.44 553.85 222.52 548.29 218.39 542.24 214.06 535.77 209.27 529.11 204.35 522.11 199.38 514.83 194.18 507.44 189.13 499.84 184.37 492.09 179.76 484.28 175.71 476.36 172.36 468.39 169.52 460.4 167.59 452.37 166.64 444.35 166.35 436.33 167.06 428.32 168.74 420.35 170.9 412.38 173.75 404.64 177.11 397.12 180.5 389.59 184.1 382.26 187.74 375.15 191 368 194.1 361.03 196.99 354.23 199.29 347.37 201.35 340.65 203.2 334.05 204.54 327.36 205.82 320.75 207.1 314.21 208.13 307.55 209.39 300.92 210.95 294.32 212.56 287.56 214.66 280.8 217.29 274.06 220.2 267.15 223.73 260.24 227.89 253.35 232.41 246.34 237.55 239.38 243.25 232.52 249.3 225.61 255.85 218.86 262.81 212.33 270.04 205.89 277.6 199.76 285.41 194.04 293.38 188.54 301.53 183.55 309.78 179.16 318.12 175.13 326.51 171.78 334.9 169.17 343.34 167.02 351.75 165.65 360.1 165.09 368.46 164.96 376.76 165.61 384.93 167.01 393.12 168.71 401.19 171.05 409.09 173.96" stroke-dasharray="1 18" transform="rotate(40.400000000000006, 400, 400)" opacity="0.89"></path><path d="M398.87 187.9C406.1 190.78 412.96 193.98 419.43 197.39 425.88 200.65 431.94 204 437.58 207.38 445.81 211.95 460.24 220.21 466.55 223.86 472.66 226.89 484.22 232.48 490.1 235.25 496.75 237.88 512.54 244.08 522.18 247.84 529.49 250.46 537.4 253.43 545.88 256.75 554.91 260.13 564.33 263.89 573.96 268.01 583.67 272.22 593.18 276.78 602.19 281.67 610.58 286.66 617.93 291.95 623.96 297.53 628.67 303.18 631.66 309.09 632.75 315.21 632.29 321.39 629.96 327.75 625.88 334.28 620.72 340.84 614.37 347.53 607.19 354.33 600.09 361.14 593.06 368.04 586.56 375.02 581.41 381.99 577.61 388.88 575.31 395.66 574.87 402.45 575.88 409.15 578.16 415.75 581.84 422.39 586.22 428.97 590.93 435.49 596.05 442.08 600.77 448.65 604.77 455.22 608.21 461.91 610.42 468.64 611.24 475.43 610.98 482.38 609.2 489.44 605.97 496.61 601.63 503.96 596.02 511.45 589.32 519.07 581.85 526.86 573.62 534.76 564.85 542.73 555.73 550.82 546.39 558.9 536.97 566.92 527.57 574.9 518.28 582.68 509.22 590.16 500.35 597.41 491.76 604.18 483.47 610.36 475.42 616.06 467.64 621 460.12 625.05 452.79 628.44 445.65 630.83 438.64 632.13 431.77 632.7 424.96 632.17 418.19 630.56 411.48 628.31 404.75 625.09 397.99 620.99 391.25 616.56 384.44 611.51 377.58 605.98 370.72 600.56 363.96 595.11 357.34 589.79 350.72 584.98 344.26 580.52 337.98 576.47 331.73 573.18 325.7 570.36 319.93 568.03 311.51 565.88 296.34 564.26 289.69 564.29 278.14 565.1 263.59 563.58 259.3 561.34 254.67 558.26 244.65 548.86 238.99 542.62 234.72 538.07 230.26 533.05 225.66 527.6 220.68 521.98 215.65 515.99 210.65 509.68 205.52 503.27 200.61 496.59 196.05 489.71 191.7 482.76 187.93 475.64 184.86 468.4 182.3 461.13 180.61 453.77 179.85 446.34 179.71 438.91 180.51 431.43 182.21 423.92 184.37 416.41 187.19 409.05 190.5 401.85 193.87 394.64 197.46 387.57 201.13 380.64 204.47 373.69 207.71 366.86 210.77 360.14 213.3 353.38 215.61 346.7 217.7 340.1 219.28 333.42 220.74 326.8 222.15 320.22 223.23 313.54 224.41 306.88 225.79 300.25 227.09 293.49 228.75 286.75 230.81 280.03 233.01 273.21 235.73 266.41 238.97 259.68 242.48 252.88 246.55 246.17 251.14 239.6 256.03 233.05 261.42 226.69 267.24 220.6 273.32 214.64 279.78 209.02 286.54 203.82 293.49 198.86 300.67 194.42 308.02 190.54 315.5 187.02 323.08 184.14 330.71 181.96 338.42 180.18 346.13 179.12 353.8 178.8 361.51 178.87 369.15 179.63 376.68 181.08 384.22 182.79 391.63 185.08 398.86 187.9" stroke-dasharray="9 19" transform="rotate(44.44, 400, 400)" opacity="0.71"></path><path d="M388.88 201.84C395.46 204.61 401.74 207.68 407.7 210.96 413.65 214.12 419.29 217.38 424.6 220.69 432.44 225.26 446.79 233.72 453.48 237.56 460.22 240.85 473.91 246.92 481.24 249.87 486.58 251.65 492.22 253.56 498.22 255.64 504.72 257.6 511.65 259.78 519.03 262.21 526.89 264.59 535.15 267.26 543.73 270.22 552.58 273.2 561.53 276.49 570.41 280.1 579.12 283.75 587.4 287.73 594.99 292.01 601.86 296.34 607.64 300.97 612.12 305.87 616.28 313.43 614.7 329.81 609.17 338.55 604.2 344.46 598.29 350.54 591.73 356.78 585.32 363.03 578.98 369.42 573.08 375.94 568.34 382.46 564.7 388.96 562.31 395.43 561.48 401.9 561.9 408.36 563.41 414.79 566.2 421.25 569.67 427.71 573.55 434.18 577.95 440.7 582.19 447.26 585.98 453.85 589.52 460.53 592.16 467.29 593.74 474.11 594.55 481.05 594.11 488.09 592.43 495.22 589.82 502.47 586.04 509.82 581.19 517.23 575.58 524.74 569.12 532.29 561.98 539.82 554.38 547.38 546.34 554.86 538.02 562.17 529.52 569.39 520.94 576.33 512.38 582.92 503.84 589.23 495.42 595.04 487.18 600.25 479.06 605.01 471.15 609.05 463.45 612.26 455.88 614.89 448.5 616.62 441.31 617.39 434.22 617.55 427.27 616.76 420.45 615.02 413.68 612.78 407 609.7 400.41 605.87 393.83 601.77 387.31 597.12 380.86 592.04 374.4 587.06 368.15 582.02 362.12 577.05 356.09 572.5 350.29 568.2 344.73 564.22 336.54 559.38 321.56 552.57 314.82 550.49 302.74 549.07 287.12 548.27 282.54 547.57 277.8 546.55 268.05 542.25 262.81 538.84 256.87 534.72 243.72 523.87 236.57 517.23 231.51 512.53 226.48 507.46 221.54 502.05 216.58 496.55 211.89 490.75 207.6 484.7 203.57 478.6 200.12 472.27 197.36 465.77 195.1 459.24 193.66 452.56 193.1 445.75 193.1 438.93 193.98 432 195.69 424.98 197.83 417.96 200.58 411.02 203.82 404.17 207.13 397.31 210.68 390.53 214.34 383.83 217.74 377.12 221.08 370.47 224.29 363.89 227.03 357.27 229.58 350.7 231.92 344.18 233.78 337.6 235.49 331.05 237.09 324.53 238.33 317.93 239.6 311.36 240.95 304.81 242.13 298.19 243.54 291.59 245.23 285.03 246.95 278.42 249.06 271.87 251.58 265.41 254.26 258.95 257.41 252.61 261.01 246.44 264.84 240.34 269.12 234.47 273.83 228.9 278.76 223.47 284.06 218.41 289.7 213.77 295.52 209.38 301.62 205.48 307.92 202.13 314.36 199.11 320.97 196.69 327.67 194.9 334.46 193.48 341.31 192.72 348.16 192.62 355.06 192.85 361.94 193.71 368.74 195.19 375.56 196.89 382.28 199.12 388.87 201.84" stroke-dasharray="27 7" transform="rotate(48.48, 400, 400)" opacity="0.40"></path><path d="M381.27 215.77C387.27 218.42 393.06 221.35 398.64 224.49 404.23 227.53 409.61 230.68 414.79 233.91 422.52 238.42 437.38 247 444.69 250.98 452.22 254.49 468.01 261.04 476.55 264.19 489.04 267.81 502.78 271.93 517.74 276.7 533.73 281.16 550.19 286.6 566.03 293.08 573.49 296.32 580.37 299.83 586.47 303.63 593.97 309.48 601.59 322.56 601.23 329.74 599.52 334.62 596.55 339.74 592.42 345.06 587.73 350.39 582.29 355.93 576.35 361.66 570.6 367.38 564.92 373.3 559.6 379.38 555.26 385.47 551.81 391.6 549.37 397.74 548.24 403.9 548.14 410.08 548.98 416.3 550.95 422.53 553.56 428.81 556.61 435.13 560.24 441.5 563.87 447.92 567.27 454.41 570.64 460.95 573.4 467.57 575.4 474.26 576.9 481.02 577.43 487.85 576.95 494.74 573.83 508.71 566.71 522.8 556.38 536.68 544.06 550.37 529.87 563.31 514.81 574.88 507.1 580.25 499.36 585.12 491.66 589.41 483.96 593.29 476.36 596.49 468.9 598.95 461.49 600.9 454.24 602.07 447.15 602.4 440.12 602.22 433.25 601.23 426.53 599.44 419.86 597.24 413.33 594.32 406.94 590.76 400.57 587 394.33 582.75 388.23 578.11 382.12 573.55 376.28 568.91 370.72 564.3 365.15 560.03 359.84 555.93 354.81 552.06 347.38 547.16 333.87 539.67 327.77 537.02 321.88 535.32 311.15 533.12 306.19 532.29 299.24 531.76 292.59 530.41 285.97 527.9 278.17 525.31 269.97 521.12 261.32 515.33 256.54 512.28 251.69 508.83 246.83 505 241.81 501.07 236.88 496.79 232.12 492.17 227.41 487.47 223.03 482.47 219.07 477.19 215.4 471.87 212.31 466.29 209.89 460.5 207.94 454.68 206.76 448.66 206.38 442.47 206.52 436.28 207.46 429.92 209.17 423.42 211.27 416.91 213.94 410.42 217.07 403.96 220.29 397.5 223.76 391.06 227.38 384.65 230.79 378.24 234.19 371.85 237.5 365.48 240.43 359.1 243.19 352.73 245.78 346.38 247.92 340 249.91 333.64 251.78 327.29 253.27 320.91 254.72 314.55 256.18 308.22 258.46 295.47 261.45 282.9 265.5 270.77 269.76 258.78 275.58 247.5 282.89 237.33 286.77 232.49 291.02 228.02 295.59 223.96 300.31 220.14 305.31 216.79 310.57 213.96 315.94 211.42 321.51 209.43 327.24 208.03 333.04 206.94 338.96 206.43 344.95 206.53 350.98 206.9 357.05 207.84 363.12 209.33 369.2 211.01 375.25 213.17 381.26 215.77" stroke-dasharray="6 24" transform="rotate(52.52, 400, 400)" opacity="0.40"></path><path d="M377.66 229.71C388.64 234.74 399.26 240.65 409.53 247.02 419.94 252.68 430.26 258.43 440.69 264.1 451.65 268.76 463.18 273.41 475.44 278.12 488.59 282.03 502.64 286.3 517.3 291.07 532.26 295.44 546.95 300.59 560.33 306.58 572.01 312.47 580.65 319.34 585.23 327.16 586.4 334.99 583.09 343.78 575.68 353.45 566.74 363.12 556.3 373.66 546.12 385 539.17 396.33 535.38 407.98 534.87 419.81 538.24 431.72 543.35 443.93 548.82 456.33 554.81 468.9 558.75 481.72 559.88 494.62 559.06 507.59 554.85 520.49 547.67 532.94 538.65 545.05 527.5 556.23 515.03 565.95 501.82 574.58 488.12 581.13 474.46 585.14 460.76 587.49 447.39 587.06 434.58 583.81 421.86 579.3 409.66 572.59 398.11 564.17 386.57 556.03 376.12 547.77 366.76 539.97 357.3 533.79 348.81 528.48 341.22 524.07 333.36 521.32 326.15 519.04 319.43 516.9 312.04 515.67 304.73 513.9 297.31 511.32 288.86 508.86 280.06 505.17 270.99 500.17 261.15 494.94 251.46 488.34 242.45 480.45 233.89 472.35 227.02 463.1 222.47 452.85 219.65 442.52 219.68 431.32 222.65 419.39 226.99 407.45 233.13 395.37 240.24 383.3 246.79 371.2 253.24 359.06 259.2 346.97 263.63 334.83 267.57 322.7 271.22 310.76 273.8 298.82 276.75 287.14 280.37 275.99 283.84 265.09 288.49 254.99 294.36 246.03 300.55 237.76 308.03 230.99 316.57 226.05 325.43 222.16 335.15 220.27 345.45 220.54 355.87 221.74 366.67 224.84 377.65 229.71" stroke-dasharray="11 25" transform="rotate(56.56, 400, 400)" opacity="0.28"></path><path d="M378.83 243.65C388.92 248.39 399.08 253.97 409.27 260.03 419.6 265.53 430.19 271.21 441.1 276.9 452.43 281.74 464.35 286.62 476.84 291.54 489.79 295.75 503.21 300.22 516.68 305.07 529.9 309.48 542.29 314.5 552.99 320.2 561.9 325.72 567.9 332.06 570.3 339.23 570.01 346.34 566.09 354.34 558.97 363.18 550.88 372 541.66 381.68 532.64 392.18 526.28 402.69 522.36 413.57 521.07 424.69 523.05 435.86 526.63 447.33 530.81 458.96 535.92 470.66 539.77 482.5 541.65 494.28 542.36 506 540.38 517.46 535.84 528.32 529.8 538.73 521.64 548.12 511.92 556.07 501.38 563.01 489.95 568.06 478.14 570.87 466.12 572.33 454.09 571.43 442.34 568.16 430.62 563.92 419.25 557.83 408.4 550.24 397.56 542.87 387.67 535.28 378.71 527.95 369.63 521.88 361.33 516.41 353.69 511.62 345.74 508.21 338.19 505.19 330.9 502.36 322.99 500.41 315.03 498.13 306.92 495.29 298.02 492.73 288.9 489.24 279.73 484.7 270.14 480.12 260.95 474.37 252.63 467.49 244.94 460.49 238.93 452.4 235.11 443.33 232.87 434.2 233.19 424.17 236.13 413.32 240.29 402.48 246.12 391.37 252.93 380.16 259.38 368.96 265.9 357.64 272.12 346.35 277.07 335.07 281.58 323.83 285.77 312.81 288.87 301.89 292.09 291.31 295.68 281.32 298.85 271.65 302.86 262.81 307.79 255.11 312.78 248.06 318.86 242.42 325.93 238.45 333.16 235.37 341.31 234.07 350.2 234.67 359.15 236.02 368.73 239.05 378.83 243.65" stroke-dasharray="7 7" transform="rotate(60.599999999999994, 400, 400)" opacity="0.99"></path><path d="M384.53 257.58C393.83 262.01 403.48 267.23 413.42 272.94 423.46 278.22 433.93 283.75 444.78 289.36 455.87 294.29 467.44 299.31 479.3 304.38 491.27 308.84 503.29 313.51 514.89 318.46 525.91 322.99 535.76 327.99 543.77 333.52 550.12 338.83 553.84 344.81 554.52 351.49 553.17 358.08 548.97 365.43 542.31 373.55 535.13 381.64 527.08 390.52 519.17 400.19 513.39 409.86 509.46 419.88 507.56 430.14 508.35 440.42 510.52 450.94 513.4 461.54 517.39 472.15 520.71 482.78 522.76 493.2 524.26 503.48 523.76 513.36 521.21 522.54 517.58 531.24 512.02 538.91 504.9 545.2 497.01 550.62 488.02 554.36 478.33 556.16 468.35 556.91 458.03 555.69 447.66 552.48 437.26 548.57 426.95 543.08 416.89 536.3 406.84 529.7 397.47 522.8 388.78 515.98 379.98 510.13 371.7 504.66 363.85 499.64 355.72 495.75 347.78 492.15 339.96 488.74 331.64 486.11 323.22 483.3 314.72 480.12 305.69 477.3 296.61 473.79 287.68 469.5 278.65 465.26 270.2 460.09 262.75 453.97 256.03 447.8 250.93 440.67 247.85 432.63 246.16 424.55 246.72 415.61 249.6 405.86 253.55 396.11 259.02 386.05 265.45 375.84 271.7 365.66 278.16 355.34 284.5 345.06 289.84 334.83 294.86 324.68 299.57 314.79 303.28 305.06 306.98 295.72 310.82 287.01 314.12 278.66 317.94 271.12 322.43 264.67 326.77 258.82 331.96 254.25 338.03 251.16 344.11 248.82 351.08 248.04 358.86 248.89 366.65 250.35 375.22 253.27 384.53 257.58" stroke-dasharray="11 1" transform="rotate(64.64, 400, 400)" opacity="0.69"></path><path d="M393.53 271.52C402.09 275.61 411.12 280.44 420.5 285.74 429.95 290.74 439.83 296.03 450.01 301.47 460.26 306.39 470.77 311.43 481.3 316.56 491.67 321.18 501.75 326 511.1 331.02 519.73 335.67 527.06 340.69 532.59 346.11 536.72 351.31 538.61 357.04 538.02 363.33 536 369.51 531.8 376.34 525.76 383.81 519.49 391.25 512.56 399.37 505.69 408.18 500.51 416.98 496.67 426.07 494.33 435.33 494.15 444.59 495.09 453.99 496.71 463.38 499.49 472.73 501.99 481.98 503.73 490.91 505.4 499.66 505.66 507.92 504.38 515.42 502.46 522.48 498.93 528.55 493.96 533.35 488.41 537.45 481.69 540.08 474.1 541.07 466.22 541.28 457.74 539.86 448.91 536.8 440.02 533.24 430.92 528.36 421.77 522.36 412.62 516.51 403.83 510.3 395.43 504.05 386.96 498.53 378.75 493.18 370.76 488.12 362.55 483.93 354.4 479.93 346.29 476.08 337.85 472.9 329.34 469.61 320.83 466.08 312.06 462.93 303.39 459.29 295.07 455.08 286.87 450.99 279.37 446.18 272.93 440.61 267.25 435.06 263.07 428.69 260.7 421.55 259.52 414.38 260.3 406.44 263.08 397.78 266.77 389.11 271.84 380.14 277.81 371.04 283.75 361.97 290.01 352.8 296.3 343.68 301.87 334.64 307.25 325.73 312.4 317.12 316.7 308.69 320.93 300.69 325.19 293.32 328.86 286.29 332.85 280.05 337.28 274.81 343.82 268.29 360.21 262.35 370.28 263.23 377.21 264.75 384.97 267.53 393.53 271.52" stroke-dasharray="5 20" transform="rotate(68.68, 400, 400)" opacity="0.44"></path><path d="M403.92 285.45C411.72 289.19 419.94 293.59 428.46 298.45 437 303.1 445.84 308.07 454.81 313.23 463.74 318.02 472.69 322.97 481.4 328.04 489.82 332.71 497.72 337.56 504.73 342.59 511.05 347.3 516.08 352.3 519.5 357.6 521.85 362.71 522.37 368.23 520.96 374.17 518.62 380.01 514.64 386.36 509.31 393.21 503.96 400.03 498.09 407.4 492.2 415.31 487.62 423.22 483.96 431.31 481.36 439.46 480.43 447.6 480.35 455.78 480.85 463.84 482.43 471.84 483.95 479.63 485.07 487.04 486.64 497.58 484.17 514.72 479.69 520.55 473.51 524.4 455.97 524.71 445.3 521.12 437.94 517.94 430.13 513.67 421.99 508.43 413.85 503.3 405.78 497.8 397.83 492.16 389.85 487.04 381.91 481.95 374.03 477 366.04 472.7 358.01 468.5 350 464.38 341.83 460.81 333.65 457.16 325.58 453.36 317.46 449.89 309.58 446.1 302.16 441.9 295.02 437.86 288.63 433.28 283.29 428.13 278.66 423.02 275.38 417.29 273.69 410.92 272.97 404.55 273.91 397.54 276.56 389.93 279.96 382.31 284.57 374.47 290.03 366.54 295.54 358.64 301.47 350.69 307.54 342.84 313.13 335.07 318.67 327.48 324.08 320.22 328.85 313.13 333.54 306.49 338.21 300.45 342.36 294.71 346.68 289.71 351.27 285.61 357.9 280.56 373.46 276.5 382.71 277.67 389.05 279.2 396.11 281.8 403.92 285.45" stroke-dasharray="24 16" transform="rotate(72.72, 400, 400)" opacity="0.15"></path><path d="M413.47 299.39C420.45 302.74 427.69 306.68 435.07 311.06 442.45 315.29 449.93 319.87 457.35 324.66 464.67 329.19 471.79 333.92 478.5 338.78 484.9 343.36 490.66 348.12 495.5 353.02 501.34 360.14 505.54 375.29 503.52 383.49 501.14 388.98 497.57 394.84 493.01 401.06 488.55 407.25 483.68 413.85 478.73 420.83 474.74 427.8 471.34 434.84 468.64 441.83 467.17 448.81 466.3 455.71 465.88 462.41 466.63 472.22 468.06 489.68 467.59 496.8 462.54 506.09 445.6 508.76 437.06 505.46 431.1 502.68 424.56 498.99 417.51 494.49 410.46 490.08 403.26 485.28 396 480.29 388.73 475.65 381.37 470.94 373.98 466.26 366.55 462.04 359.07 457.82 351.61 453.63 344.13 449.86 336.71 446.01 329.48 442.06 322.35 438.39 315.55 434.49 309.28 430.33 303.35 426.31 298.16 421.92 293.94 417.12 289.13 409.79 287.04 392.8 290.04 383.14 293.11 376.54 297.23 369.82 302.11 363.07 307.1 356.35 312.55 349.66 318.23 343.11 323.63 336.63 329.1 330.37 334.54 324.45 339.54 318.69 344.51 313.36 349.46 308.59 356.33 302.13 370.32 293.36 377.85 291.4 382.83 290.72 388.27 290.98 394.19 292.23 400.06 293.71 406.48 296.11 413.47 299.39" stroke-dasharray="2 18" transform="rotate(76.76, 400, 400)" opacity="0.97"></path><path d="M420.13 313.33C432.29 319.2 444.63 326.97 456.24 335.75 467.41 343.88 476.94 352.85 483.46 362.27 488.37 371.04 489.31 380.64 485.86 390.93 481.32 400.99 473.97 412.13 465.25 424.15 459.3 436.17 454.79 447.95 451.82 458.77 451.65 469.34 451.24 478.49 449.51 485.3 448.23 491.28 444.32 494.38 437.64 494.01 430.71 492.68 421.13 488.13 409.28 480.56 397.42 473.23 384.58 464.68 371.52 455.84 358.53 448.21 345.42 440.29 333.17 432.22 321.59 425.01 311.74 416.98 305 408.07 300.26 399.37 299.55 389.33 303.51 378.12 309.32 366.9 318.13 355.6 328.42 344.98 338.2 334.59 348.47 325.28 358.68 317.87 367.8 311.17 377.35 306.84 387.43 305.52 397.08 305.08 407.98 307.64 420.13 313.33" stroke-dasharray="17 24" transform="rotate(80.80000000000001, 400, 400)" opacity="0.90"></path><path d="M422.49 327.26C432.68 332.28 442.32 338.94 450.78 346.54 458.89 353.77 465.21 361.84 468.93 370.32 471.7 378.41 471.47 387.14 468.15 396.28 464.44 405.27 458.69 414.91 451.77 424.94 446.72 434.97 442.28 444.41 438.67 452.77 436.17 464.34 429.18 477.69 421.9 477.9 416.36 476.61 408.71 472.81 399.07 466.62 389.42 460.59 378.84 453.37 368.06 445.68 357.45 438.74 346.91 431.36 337.34 423.81 328.46 416.83 321.21 409.29 316.57 401.25 313.4 393.39 313.39 384.7 316.99 375.4 321.93 366.09 329.36 357.05 338.18 348.8 346.88 340.72 356.3 333.71 365.83 328.37 374.76 323.48 384 320.55 393.41 320 402.56 320 412.31 322.38 422.49 327.26" stroke-dasharray="24 14" transform="rotate(84.84, 400, 400)" opacity="0.26"></path><path d="M420.04 341.2C428.14 345.31 435.28 350.76 441.09 357.04 446.68 363.15 450.62 370.01 452.53 377.24 453.99 384.27 453.33 391.78 450.57 399.5 447.8 407.13 443.56 415.11 438.29 423.11 434.2 431.11 430.14 438.36 426.4 444.53 422.57 452.98 413.89 462 407.38 461.69 402.7 460.56 396.58 457.55 389.05 452.68 381.52 447.93 373.37 442.09 365.21 435.74 357.22 429.79 349.47 423.35 342.68 416.7 336.43 410.4 331.56 403.7 328.73 396.76 326.87 389.95 327.34 382.7 330.47 375.26 334.49 367.82 340.46 360.87 347.6 354.76 354.85 348.74 362.86 343.72 371.1 340.08 379.1 336.69 387.37 334.85 395.58 334.82 403.68 335.09 411.94 337.18 420.04 341.2" stroke-dasharray="20 24" transform="rotate(88.88, 400, 400)" opacity="0.91"></path><path d="M413.31 355.13C425.27 361.43 432.95 371.7 435.02 383.15 436.55 394.28 432.81 406.92 424.81 418.85 419.36 430.77 412.84 439.6 406.01 443.74 400.65 447.36 392.46 445.89 381.38 438.75 370.29 431.84 358.61 421.6 349.75 410.72 342.25 400.5 339.49 388.93 343.95 377.72 350.48 366.51 362.07 357.69 374.92 352.94 387.67 348.67 401.34 349.04 413.31 355.13" stroke-dasharray="20 14" transform="rotate(92.92, 400, 400)" opacity="0.15"></path><path d="M403.72 369.07C411.52 373.37 416.17 380.38 417.28 388.24 418.37 396.02 416.29 404.72 411.34 412.61 407.48 420.48 402.18 425.97 396.47 428.33 391.44 430.52 385 429.49 377.68 424.81 370.36 420.24 363.56 413.23 358.98 405.62 354.99 398.25 354.05 390.05 357.43 382.53 361.76 374.99 369.36 369.5 377.91 366.84 386.6 364.33 395.92 364.86 403.72 369.07" stroke-dasharray="24 19" transform="rotate(96.96, 400, 400)" opacity="0.51"></path></g></svg>