

<svg xmlns="http://www.w3.org/2000/svg" width="200" height="200" 
  viewBox="-25 -25 250 250" class="float"> 
  <style>
  .float {  
    animation-name: ani-float;
    animation-duration: 3s;
    animation-iteration-count: infinite;
    animation-timing-function: ease-in-out; 
  }
 
  @keyframes ani-float {
    0% { transform: translate(0,  0px); }
    50% { transform: translate(0, 15px); }
    100% { transform: translate(0, -0px); }    
  }
</style>
  <defs>
   <linearGradient id="lgrad" x1="0%" y1="50%" x2="100%" y2="50%" >
     <stop offset="0%" style="stop-color:#000000;stop-opacity:1.00" />
     <stop offset="100%" style="stop-color:#516482;stop-opacity:1.00" />
   </linearGradient>
  </defs>
  <path d="M195.51478027134704 70.38705097906845 C193.1680462523186 59.41549842390303 181.01248908428698 39.39356687257909 172.9448521767466 31.59642888772116 C161.47657908972093 20.512674284933333 132.24011983623313 5.175564313151718 116.74167452250249 1.4113782722235726 C107.82578250178578 -0.7540696554515751 89.02838299428066 0.13940026425714036 80.04620898934708 2.010989267657223 C70.62737284369908 3.9735642684687695 52.6387560649938 11.643619481819858 44.5179691031549 16.80297933482518 C38.239659470796724 20.79176254193822 26.642772140839263 30.63453435349301 22.49555182112053 36.80933207753389 C13.344190602146934 50.43479686369853 0.4280403432382051 82.08483757566198 0.011356219085485009 98.49297815099304 C-0.3804966935535077 113.923318072168 10.433978680048984 144.15062225480418 18.184098371549737 157.4992020877138 C21.70479362974214 163.56314478693 31.65687821309122 173.89279226687307 37.369960091408025 177.95818174539588 C47.739464682456514 185.33704936182892 71.27425862766064 196.83320445175193 83.86503399842502 198.68973032756762 C97.94777146886582 200.76624791653998 127.42143828514322 197.45744387408507 140.3491102208299 191.49835683982155 C154.71440570131463 184.87658870809693 180.03455818077632 163.0709225943684 187.19198244551632 148.964866968274 C196.13053767060637 131.34850770853453 199.64662813485785 89.70444511784905 195.51478027134704 70.38705097906845Z" stroke="none" fill="url(#lgrad)"  />
</svg>

