<?xml version="1.0" standalone="no"?>
<svg xmlns:xlink="http://www.w3.org/1999/xlink" id="wave" style="transform:rotate(180deg); transition: 0.3s" viewBox="0 0 1440 230" version="1.1" xmlns="http://www.w3.org/2000/svg"><defs><linearGradient id="sw-gradient-0" x1="0" x2="0" y1="1" y2="0"><stop stop-color="rgba(79, 101, 125, 1)" offset="0%"/><stop stop-color="rgba(201.551, 201.551, 201.551, 1)" offset="100%"/></linearGradient></defs><path style="transform:translate(0, 0px); opacity:1" fill="url(#sw-gradient-0)" d="M0,0L24,26.8C48,54,96,107,144,126.5C192,146,240,130,288,138C336,146,384,176,432,164.8C480,153,528,100,576,80.5C624,61,672,77,720,88.2C768,100,816,107,864,103.5C912,100,960,84,1008,65.2C1056,46,1104,23,1152,30.7C1200,38,1248,77,1296,99.7C1344,123,1392,130,1440,126.5C1488,123,1536,107,1584,88.2C1632,69,1680,46,1728,30.7C1776,15,1824,8,1872,19.2C1920,31,1968,61,2016,95.8C2064,130,2112,169,2160,184C2208,199,2256,192,2304,176.3C2352,161,2400,138,2448,118.8C2496,100,2544,84,2592,72.8C2640,61,2688,54,2736,76.7C2784,100,2832,153,2880,172.5C2928,192,2976,176,3024,161C3072,146,3120,130,3168,134.2C3216,138,3264,161,3312,141.8C3360,123,3408,61,3432,30.7L3456,0L3456,230L3432,230C3408,230,3360,230,3312,230C3264,230,3216,230,3168,230C3120,230,3072,230,3024,230C2976,230,2928,230,2880,230C2832,230,2784,230,2736,230C2688,230,2640,230,2592,230C2544,230,2496,230,2448,230C2400,230,2352,230,2304,230C2256,230,2208,230,2160,230C2112,230,2064,230,2016,230C1968,230,1920,230,1872,230C1824,230,1776,230,1728,230C1680,230,1632,230,1584,230C1536,230,1488,230,1440,230C1392,230,1344,230,1296,230C1248,230,1200,230,1152,230C1104,230,1056,230,1008,230C960,230,912,230,864,230C816,230,768,230,720,230C672,230,624,230,576,230C528,230,480,230,432,230C384,230,336,230,288,230C240,230,192,230,144,230C96,230,48,230,24,230L0,230Z"/><defs><linearGradient id="sw-gradient-1" x1="0" x2="0" y1="1" y2="0"><stop stop-color="rgba(9.605, 17.01, 25.088, 1)" offset="0%"/><stop stop-color="rgba(0, 0, 0, 1)" offset="100%"/></linearGradient></defs><path style="transform:translate(0, 50px); opacity:0.9" fill="url(#sw-gradient-1)" d="M0,207L24,199.3C48,192,96,176,144,164.8C192,153,240,146,288,134.2C336,123,384,107,432,111.2C480,115,528,138,576,141.8C624,146,672,130,720,118.8C768,107,816,100,864,88.2C912,77,960,61,1008,46C1056,31,1104,15,1152,19.2C1200,23,1248,46,1296,57.5C1344,69,1392,69,1440,69C1488,69,1536,69,1584,57.5C1632,46,1680,23,1728,15.3C1776,8,1824,15,1872,46C1920,77,1968,130,2016,153.3C2064,176,2112,169,2160,172.5C2208,176,2256,192,2304,191.7C2352,192,2400,176,2448,145.7C2496,115,2544,69,2592,72.8C2640,77,2688,130,2736,145.7C2784,161,2832,138,2880,130.3C2928,123,2976,130,3024,111.2C3072,92,3120,46,3168,23C3216,0,3264,0,3312,15.3C3360,31,3408,61,3432,76.7L3456,92L3456,230L3432,230C3408,230,3360,230,3312,230C3264,230,3216,230,3168,230C3120,230,3072,230,3024,230C2976,230,2928,230,2880,230C2832,230,2784,230,2736,230C2688,230,2640,230,2592,230C2544,230,2496,230,2448,230C2400,230,2352,230,2304,230C2256,230,2208,230,2160,230C2112,230,2064,230,2016,230C1968,230,1920,230,1872,230C1824,230,1776,230,1728,230C1680,230,1632,230,1584,230C1536,230,1488,230,1440,230C1392,230,1344,230,1296,230C1248,230,1200,230,1152,230C1104,230,1056,230,1008,230C960,230,912,230,864,230C816,230,768,230,720,230C672,230,624,230,576,230C528,230,480,230,432,230C384,230,336,230,288,230C240,230,192,230,144,230C96,230,48,230,24,230L0,230Z"/><defs><linearGradient id="sw-gradient-2" x1="0" x2="0" y1="1" y2="0"><stop stop-color="rgba(81, 101, 135, 1)" offset="0%"/><stop stop-color="rgba(81, 101, 135, 1)" offset="100%"/></linearGradient></defs><path style="transform:translate(0, 100px); opacity:0.8" fill="url(#sw-gradient-2)" d="M0,23L24,30.7C48,38,96,54,144,53.7C192,54,240,38,288,57.5C336,77,384,130,432,126.5C480,123,528,61,576,30.7C624,0,672,0,720,3.8C768,8,816,15,864,42.2C912,69,960,115,1008,115C1056,115,1104,69,1152,57.5C1200,46,1248,69,1296,88.2C1344,107,1392,123,1440,126.5C1488,130,1536,123,1584,111.2C1632,100,1680,84,1728,65.2C1776,46,1824,23,1872,38.3C1920,54,1968,107,2016,115C2064,123,2112,84,2160,61.3C2208,38,2256,31,2304,30.7C2352,31,2400,38,2448,34.5C2496,31,2544,15,2592,38.3C2640,61,2688,123,2736,126.5C2784,130,2832,77,2880,53.7C2928,31,2976,38,3024,61.3C3072,84,3120,123,3168,149.5C3216,176,3264,192,3312,172.5C3360,153,3408,100,3432,72.8L3456,46L3456,230L3432,230C3408,230,3360,230,3312,230C3264,230,3216,230,3168,230C3120,230,3072,230,3024,230C2976,230,2928,230,2880,230C2832,230,2784,230,2736,230C2688,230,2640,230,2592,230C2544,230,2496,230,2448,230C2400,230,2352,230,2304,230C2256,230,2208,230,2160,230C2112,230,2064,230,2016,230C1968,230,1920,230,1872,230C1824,230,1776,230,1728,230C1680,230,1632,230,1584,230C1536,230,1488,230,1440,230C1392,230,1344,230,1296,230C1248,230,1200,230,1152,230C1104,230,1056,230,1008,230C960,230,912,230,864,230C816,230,768,230,720,230C672,230,624,230,576,230C528,230,480,230,432,230C384,230,336,230,288,230C240,230,192,230,144,230C96,230,48,230,24,230L0,230Z"/></svg>