<?xml version="1.0" standalone="no"?>
<svg xmlns:xlink="http://www.w3.org/1999/xlink" id="wave" style="transform:rotate(0deg); transition: 0.3s" viewBox="0 0 1440 230" version="1.1" xmlns="http://www.w3.org/2000/svg"><defs><linearGradient id="sw-gradient-0" x1="0" x2="0" y1="1" y2="0"><stop stop-color="rgba(75, 75, 85, 1)" offset="0%"/><stop stop-color="rgba(75, 75, 85, 1)" offset="100%"/></linearGradient></defs><path style="transform:translate(0, 0px); opacity:1" fill="url(#sw-gradient-0)" d="M0,161L30,168.7C60,176,120,192,180,172.5C240,153,300,100,360,69C420,38,480,31,540,42.2C600,54,660,84,720,95.8C780,107,840,100,900,95.8C960,92,1020,92,1080,103.5C1140,115,1200,138,1260,134.2C1320,130,1380,100,1440,92C1500,84,1560,100,1620,107.3C1680,115,1740,115,1800,99.7C1860,84,1920,54,1980,42.2C2040,31,2100,38,2160,65.2C2220,92,2280,138,2340,130.3C2400,123,2460,61,2520,61.3C2580,61,2640,123,2700,126.5C2760,130,2820,77,2880,72.8C2940,69,3000,115,3060,130.3C3120,146,3180,130,3240,130.3C3300,130,3360,146,3420,138C3480,130,3540,100,3600,84.3C3660,69,3720,69,3780,88.2C3840,107,3900,146,3960,134.2C4020,123,4080,61,4140,65.2C4200,69,4260,138,4290,172.5L4320,207L4320,230L4290,230C4260,230,4200,230,4140,230C4080,230,4020,230,3960,230C3900,230,3840,230,3780,230C3720,230,3660,230,3600,230C3540,230,3480,230,3420,230C3360,230,3300,230,3240,230C3180,230,3120,230,3060,230C3000,230,2940,230,2880,230C2820,230,2760,230,2700,230C2640,230,2580,230,2520,230C2460,230,2400,230,2340,230C2280,230,2220,230,2160,230C2100,230,2040,230,1980,230C1920,230,1860,230,1800,230C1740,230,1680,230,1620,230C1560,230,1500,230,1440,230C1380,230,1320,230,1260,230C1200,230,1140,230,1080,230C1020,230,960,230,900,230C840,230,780,230,720,230C660,230,600,230,540,230C480,230,420,230,360,230C300,230,240,230,180,230C120,230,60,230,30,230L0,230Z"/><defs><linearGradient id="sw-gradient-1" x1="0" x2="0" y1="1" y2="0"><stop stop-color="rgba(203, 213, 225, 1)" offset="0%"/><stop stop-color="rgba(203, 213, 225, 1)" offset="100%"/></linearGradient></defs><path style="transform:translate(0, 50px); opacity:0.9" fill="url(#sw-gradient-1)" d="M0,23L30,42.2C60,61,120,100,180,99.7C240,100,300,61,360,72.8C420,84,480,146,540,161C600,176,660,146,720,134.2C780,123,840,130,900,111.2C960,92,1020,46,1080,42.2C1140,38,1200,77,1260,84.3C1320,92,1380,69,1440,76.7C1500,84,1560,123,1620,138C1680,153,1740,146,1800,118.8C1860,92,1920,46,1980,38.3C2040,31,2100,61,2160,88.2C2220,115,2280,138,2340,122.7C2400,107,2460,54,2520,26.8C2580,0,2640,0,2700,26.8C2760,54,2820,107,2880,134.2C2940,161,3000,161,3060,168.7C3120,176,3180,192,3240,176.3C3300,161,3360,115,3420,80.5C3480,46,3540,23,3600,23C3660,23,3720,46,3780,57.5C3840,69,3900,69,3960,57.5C4020,46,4080,23,4140,38.3C4200,54,4260,107,4290,134.2L4320,161L4320,230L4290,230C4260,230,4200,230,4140,230C4080,230,4020,230,3960,230C3900,230,3840,230,3780,230C3720,230,3660,230,3600,230C3540,230,3480,230,3420,230C3360,230,3300,230,3240,230C3180,230,3120,230,3060,230C3000,230,2940,230,2880,230C2820,230,2760,230,2700,230C2640,230,2580,230,2520,230C2460,230,2400,230,2340,230C2280,230,2220,230,2160,230C2100,230,2040,230,1980,230C1920,230,1860,230,1800,230C1740,230,1680,230,1620,230C1560,230,1500,230,1440,230C1380,230,1320,230,1260,230C1200,230,1140,230,1080,230C1020,230,960,230,900,230C840,230,780,230,720,230C660,230,600,230,540,230C480,230,420,230,360,230C300,230,240,230,180,230C120,230,60,230,30,230L0,230Z"/><defs><linearGradient id="sw-gradient-2" x1="0" x2="0" y1="1" y2="0"><stop stop-color="rgba(75, 75, 85, 1)" offset="0%"/><stop stop-color="rgba(75, 75, 85, 1)" offset="100%"/></linearGradient></defs><path style="transform:translate(0, 100px); opacity:0.8" fill="url(#sw-gradient-2)" d="M0,0L30,0C60,0,120,0,180,7.7C240,15,300,31,360,42.2C420,54,480,61,540,61.3C600,61,660,54,720,46C780,38,840,31,900,53.7C960,77,1020,130,1080,126.5C1140,123,1200,61,1260,57.5C1320,54,1380,107,1440,134.2C1500,161,1560,161,1620,149.5C1680,138,1740,115,1800,122.7C1860,130,1920,169,1980,184C2040,199,2100,192,2160,176.3C2220,161,2280,138,2340,107.3C2400,77,2460,38,2520,49.8C2580,61,2640,123,2700,138C2760,153,2820,123,2880,115C2940,107,3000,123,3060,126.5C3120,130,3180,123,3240,126.5C3300,130,3360,146,3420,145.7C3480,146,3540,130,3600,126.5C3660,123,3720,130,3780,122.7C3840,115,3900,92,3960,103.5C4020,115,4080,161,4140,149.5C4200,138,4260,69,4290,34.5L4320,0L4320,230L4290,230C4260,230,4200,230,4140,230C4080,230,4020,230,3960,230C3900,230,3840,230,3780,230C3720,230,3660,230,3600,230C3540,230,3480,230,3420,230C3360,230,3300,230,3240,230C3180,230,3120,230,3060,230C3000,230,2940,230,2880,230C2820,230,2760,230,2700,230C2640,230,2580,230,2520,230C2460,230,2400,230,2340,230C2280,230,2220,230,2160,230C2100,230,2040,230,1980,230C1920,230,1860,230,1800,230C1740,230,1680,230,1620,230C1560,230,1500,230,1440,230C1380,230,1320,230,1260,230C1200,230,1140,230,1080,230C1020,230,960,230,900,230C840,230,780,230,720,230C660,230,600,230,540,230C480,230,420,230,360,230C300,230,240,230,180,230C120,230,60,230,30,230L0,230Z"/></svg>