<svg width="100%" height="100%" id="svg" viewBox="0 0 1440 390" xmlns="http://www.w3.org/2000/svg" class="transition duration-300 ease-in-out delay-150"><defs><linearGradient id="gradient" x1="35%" y1="2%" x2="65%" y2="98%"><stop offset="5%" stop-color="#abb8c3"></stop><stop offset="95%" stop-color="#516482"></stop></linearGradient></defs><path d="M 0,400 C 0,400 0,133 0,133 C 38.73525866064121,114.659838531192 77.47051732128241,96.31967706238399 107,107 C 136.52948267871759,117.68032293761601 156.8531893755116,157.38113028165608 186,164 C 215.1468106244884,170.61886971834392 253.11672517667125,144.15580181099173 291,135 C 328.88327482332875,125.84419818900827 366.67990991780346,133.995662474377 400,125 C 433.32009008219654,116.00433752562297 462.1636351521149,89.86154829150014 496,100 C 529.8363648478851,110.13845170849986 568.6655494737369,156.55814435962236 613,177 C 657.3344505262631,197.44185564037764 707.1741669529373,191.90587427001034 737,174 C 766.8258330470627,156.09412572998966 776.6377827145144,125.8183585603364 810,126 C 843.3622172854856,126.1816414396636 900.274702189005,156.82069148864412 938,158 C 975.725297810995,159.17930851135588 994.2634085294656,130.89887548508705 1020,126 C 1045.7365914705344,121.10112451491294 1078.671663693133,139.58380657100759 1121,150 C 1163.328336306867,160.41619342899241 1215.0499366980025,162.76589823088256 1247,146 C 1278.9500633019975,129.23410176911744 1291.1285895148562,93.35260050546212 1320,88 C 1348.8714104851438,82.64739949453788 1394.4357052425719,107.82369974726893 1440,133 C 1440,133 1440,400 1440,400 Z" stroke="none" stroke-width="0" fill="url(#gradient)" fill-opacity="0.53" class="transition-all duration-300 ease-in-out delay-150 path-0" transform="rotate(-180 720 200)"></path><defs><linearGradient id="gradient" x1="35%" y1="2%" x2="65%" y2="98%"><stop offset="5%" stop-color="#abb8c3"></stop><stop offset="95%" stop-color="#516482"></stop></linearGradient></defs><path d="M 0,400 C 0,400 0,266 0,266 C 34.69048048607431,235.43845957100172 69.38096097214861,204.87691914200346 100,224 C 130.6190390278514,243.12308085799654 157.16663659747982,311.93078300298794 194,313 C 230.83336340252018,314.06921699701206 277.95249263793204,247.39994884604502 317,226 C 356.04750736206796,204.60005115395498 387.02339285079194,228.46942161283212 419,232 C 450.97660714920806,235.53057838716788 483.9539359589003,218.7223647026264 514,231 C 544.0460640410997,243.2776352973736 571.1608633136071,284.6411195766622 602,293 C 632.8391366863929,301.3588804233378 667.4026107866713,276.7131569907249 705,275 C 742.5973892133287,273.2868430092751 783.2286935397078,294.5062524604385 819,284 C 854.7713064602922,273.4937475395615 885.6826150544973,231.2618331675213 922,217 C 958.3173849455027,202.7381668324787 1000.0408462423031,216.4464148694763 1037,231 C 1073.9591537576969,245.5535851305237 1106.1539999762897,260.95250735457336 1135,259 C 1163.8460000237103,257.04749264542664 1189.3431538525374,237.74355571223023 1221,244 C 1252.6568461474626,250.25644428776977 1290.473384613561,282.07326979650566 1328,290 C 1365.526615386439,297.92673020349434 1402.7633076932195,281.9633651017472 1440,266 C 1440,266 1440,400 1440,400 Z" stroke="none" stroke-width="0" fill="url(#gradient)" fill-opacity="1" class="transition-all duration-300 ease-in-out delay-150 path-1" transform="rotate(-180 720 200)"></path></svg>