<?xml version="1.0" standalone="no"?>
<svg xmlns:xlink="http://www.w3.org/1999/xlink" id="wave" style="transform:rotate(0deg); transition: 0.3s" viewBox="0 0 1440 170" version="1.1" xmlns="http://www.w3.org/2000/svg"><defs><linearGradient id="sw-gradient-0" x1="0" x2="0" y1="1" y2="0"><stop stop-color="rgba(137.147, 144.17, 152.597, 1)" offset="0%"/><stop stop-color="rgba(203, 213, 225, 1)" offset="100%"/></linearGradient></defs><path style="transform:translate(0, 0px); opacity:1" fill="url(#sw-gradient-0)" d="M0,17L30,28.3C60,40,120,62,180,68C240,74,300,62,360,51C420,40,480,28,540,28.3C600,28,660,40,720,39.7C780,40,840,28,900,19.8C960,11,1020,6,1080,25.5C1140,45,1200,91,1260,99.2C1320,108,1380,79,1440,59.5C1500,40,1560,28,1620,42.5C1680,57,1740,96,1800,119C1860,142,1920,147,1980,136C2040,125,2100,96,2160,76.5C2220,57,2280,45,2340,36.8C2400,28,2460,23,2520,22.7C2580,23,2640,28,2700,36.8C2760,45,2820,57,2880,68C2940,79,3000,91,3060,102C3120,113,3180,125,3240,116.2C3300,108,3360,79,3420,70.8C3480,62,3540,74,3600,82.2C3660,91,3720,96,3780,102C3840,108,3900,113,3960,110.5C4020,108,4080,96,4140,79.3C4200,62,4260,40,4290,28.3L4320,17L4320,170L4290,170C4260,170,4200,170,4140,170C4080,170,4020,170,3960,170C3900,170,3840,170,3780,170C3720,170,3660,170,3600,170C3540,170,3480,170,3420,170C3360,170,3300,170,3240,170C3180,170,3120,170,3060,170C3000,170,2940,170,2880,170C2820,170,2760,170,2700,170C2640,170,2580,170,2520,170C2460,170,2400,170,2340,170C2280,170,2220,170,2160,170C2100,170,2040,170,1980,170C1920,170,1860,170,1800,170C1740,170,1680,170,1620,170C1560,170,1500,170,1440,170C1380,170,1320,170,1260,170C1200,170,1140,170,1080,170C1020,170,960,170,900,170C840,170,780,170,720,170C660,170,600,170,540,170C480,170,420,170,360,170C300,170,240,170,180,170C120,170,60,170,30,170L0,170Z"/><defs><linearGradient id="sw-gradient-1" x1="0" x2="0" y1="1" y2="0"><stop stop-color="rgba(100, 116, 139, 1)" offset="0%"/><stop stop-color="rgba(38.475, 38.475, 41.026, 1)" offset="100%"/></linearGradient></defs><path style="transform:translate(0, 50px); opacity:0.9" fill="url(#sw-gradient-1)" d="M0,51L30,65.2C60,79,120,108,180,107.7C240,108,300,79,360,65.2C420,51,480,51,540,42.5C600,34,660,17,720,28.3C780,40,840,79,900,90.7C960,102,1020,85,1080,68C1140,51,1200,34,1260,48.2C1320,62,1380,108,1440,116.2C1500,125,1560,96,1620,79.3C1680,62,1740,57,1800,56.7C1860,57,1920,62,1980,73.7C2040,85,2100,102,2160,93.5C2220,85,2280,51,2340,39.7C2400,28,2460,40,2520,56.7C2580,74,2640,96,2700,102C2760,108,2820,96,2880,96.3C2940,96,3000,108,3060,116.2C3120,125,3180,130,3240,110.5C3300,91,3360,45,3420,42.5C3480,40,3540,79,3600,93.5C3660,108,3720,96,3780,93.5C3840,91,3900,96,3960,87.8C4020,79,4080,57,4140,59.5C4200,62,4260,91,4290,104.8L4320,119L4320,170L4290,170C4260,170,4200,170,4140,170C4080,170,4020,170,3960,170C3900,170,3840,170,3780,170C3720,170,3660,170,3600,170C3540,170,3480,170,3420,170C3360,170,3300,170,3240,170C3180,170,3120,170,3060,170C3000,170,2940,170,2880,170C2820,170,2760,170,2700,170C2640,170,2580,170,2520,170C2460,170,2400,170,2340,170C2280,170,2220,170,2160,170C2100,170,2040,170,1980,170C1920,170,1860,170,1800,170C1740,170,1680,170,1620,170C1560,170,1500,170,1440,170C1380,170,1320,170,1260,170C1200,170,1140,170,1080,170C1020,170,960,170,900,170C840,170,780,170,720,170C660,170,600,170,540,170C480,170,420,170,360,170C300,170,240,170,180,170C120,170,60,170,30,170L0,170Z"/></svg>