<?xml version="1.0" standalone="no"?>
<svg xmlns:xlink="http://www.w3.org/1999/xlink" id="wave" style="transform:rotate(0deg); transition: 0.3s" viewBox="0 0 1440 330" version="1.1" xmlns="http://www.w3.org/2000/svg"><defs><linearGradient id="sw-gradient-0" x1="0" x2="0" y1="1" y2="0"><stop stop-color="rgba(75, 75, 85, 1)" offset="0%"/><stop stop-color="rgba(75, 75, 85, 1)" offset="100%"/></linearGradient></defs><path style="transform:translate(0, 0px); opacity:1" fill="url(#sw-gradient-0)" d="M0,264L34.3,264C68.6,264,137,264,206,247.5C274.3,231,343,198,411,176C480,154,549,143,617,137.5C685.7,132,754,132,823,110C891.4,88,960,44,1029,71.5C1097.1,99,1166,198,1234,236.5C1302.9,275,1371,253,1440,209C1508.6,165,1577,99,1646,110C1714.3,121,1783,209,1851,214.5C1920,220,1989,143,2057,104.5C2125.7,66,2194,66,2263,82.5C2331.4,99,2400,132,2469,154C2537.1,176,2606,187,2674,187C2742.9,187,2811,176,2880,181.5C2948.6,187,3017,209,3086,198C3154.3,187,3223,143,3291,126.5C3360,110,3429,121,3497,126.5C3565.7,132,3634,132,3703,159.5C3771.4,187,3840,242,3909,264C3977.1,286,4046,275,4114,253C4182.9,231,4251,198,4320,170.5C4388.6,143,4457,121,4526,99C4594.3,77,4663,55,4731,55C4800,55,4869,77,4903,88L4937.1,99L4937.1,330L4902.9,330C4868.6,330,4800,330,4731,330C4662.9,330,4594,330,4526,330C4457.1,330,4389,330,4320,330C4251.4,330,4183,330,4114,330C4045.7,330,3977,330,3909,330C3840,330,3771,330,3703,330C3634.3,330,3566,330,3497,330C3428.6,330,3360,330,3291,330C3222.9,330,3154,330,3086,330C3017.1,330,2949,330,2880,330C2811.4,330,2743,330,2674,330C2605.7,330,2537,330,2469,330C2400,330,2331,330,2263,330C2194.3,330,2126,330,2057,330C1988.6,330,1920,330,1851,330C1782.9,330,1714,330,1646,330C1577.1,330,1509,330,1440,330C1371.4,330,1303,330,1234,330C1165.7,330,1097,330,1029,330C960,330,891,330,823,330C754.3,330,686,330,617,330C548.6,330,480,330,411,330C342.9,330,274,330,206,330C137.1,330,69,330,34,330L0,330Z"/><defs><linearGradient id="sw-gradient-1" x1="0" x2="0" y1="1" y2="0"><stop stop-color="rgba(255, 255, 255, 1)" offset="0%"/><stop stop-color="rgba(255, 255, 255, 1)" offset="100%"/></linearGradient></defs><path style="transform:translate(0, 50px); opacity:0.9" fill="url(#sw-gradient-1)" d="M0,297L34.3,269.5C68.6,242,137,187,206,159.5C274.3,132,343,132,411,137.5C480,143,549,154,617,176C685.7,198,754,231,823,209C891.4,187,960,110,1029,115.5C1097.1,121,1166,209,1234,253C1302.9,297,1371,297,1440,297C1508.6,297,1577,297,1646,264C1714.3,231,1783,165,1851,121C1920,77,1989,55,2057,49.5C2125.7,44,2194,55,2263,88C2331.4,121,2400,176,2469,170.5C2537.1,165,2606,99,2674,77C2742.9,55,2811,77,2880,77C2948.6,77,3017,55,3086,77C3154.3,99,3223,165,3291,187C3360,209,3429,187,3497,192.5C3565.7,198,3634,231,3703,225.5C3771.4,220,3840,176,3909,170.5C3977.1,165,4046,198,4114,187C4182.9,176,4251,121,4320,93.5C4388.6,66,4457,66,4526,93.5C4594.3,121,4663,176,4731,181.5C4800,187,4869,143,4903,121L4937.1,99L4937.1,330L4902.9,330C4868.6,330,4800,330,4731,330C4662.9,330,4594,330,4526,330C4457.1,330,4389,330,4320,330C4251.4,330,4183,330,4114,330C4045.7,330,3977,330,3909,330C3840,330,3771,330,3703,330C3634.3,330,3566,330,3497,330C3428.6,330,3360,330,3291,330C3222.9,330,3154,330,3086,330C3017.1,330,2949,330,2880,330C2811.4,330,2743,330,2674,330C2605.7,330,2537,330,2469,330C2400,330,2331,330,2263,330C2194.3,330,2126,330,2057,330C1988.6,330,1920,330,1851,330C1782.9,330,1714,330,1646,330C1577.1,330,1509,330,1440,330C1371.4,330,1303,330,1234,330C1165.7,330,1097,330,1029,330C960,330,891,330,823,330C754.3,330,686,330,617,330C548.6,330,480,330,411,330C342.9,330,274,330,206,330C137.1,330,69,330,34,330L0,330Z"/><defs><linearGradient id="sw-gradient-2" x1="0" x2="0" y1="1" y2="0"><stop stop-color="rgba(75, 75, 85, 1)" offset="0%"/><stop stop-color="rgba(75, 75, 85, 1)" offset="100%"/></linearGradient></defs><path style="transform:translate(0, 100px); opacity:0.8" fill="url(#sw-gradient-2)" d="M0,297L34.3,247.5C68.6,198,137,99,206,66C274.3,33,343,66,411,115.5C480,165,549,231,617,214.5C685.7,198,754,99,823,71.5C891.4,44,960,88,1029,104.5C1097.1,121,1166,110,1234,88C1302.9,66,1371,33,1440,27.5C1508.6,22,1577,44,1646,71.5C1714.3,99,1783,132,1851,159.5C1920,187,1989,209,2057,220C2125.7,231,2194,231,2263,198C2331.4,165,2400,99,2469,66C2537.1,33,2606,33,2674,77C2742.9,121,2811,209,2880,225.5C2948.6,242,3017,187,3086,148.5C3154.3,110,3223,88,3291,88C3360,88,3429,110,3497,148.5C3565.7,187,3634,242,3703,231C3771.4,220,3840,143,3909,143C3977.1,143,4046,220,4114,236.5C4182.9,253,4251,209,4320,176C4388.6,143,4457,121,4526,121C4594.3,121,4663,143,4731,148.5C4800,154,4869,143,4903,137.5L4937.1,132L4937.1,330L4902.9,330C4868.6,330,4800,330,4731,330C4662.9,330,4594,330,4526,330C4457.1,330,4389,330,4320,330C4251.4,330,4183,330,4114,330C4045.7,330,3977,330,3909,330C3840,330,3771,330,3703,330C3634.3,330,3566,330,3497,330C3428.6,330,3360,330,3291,330C3222.9,330,3154,330,3086,330C3017.1,330,2949,330,2880,330C2811.4,330,2743,330,2674,330C2605.7,330,2537,330,2469,330C2400,330,2331,330,2263,330C2194.3,330,2126,330,2057,330C1988.6,330,1920,330,1851,330C1782.9,330,1714,330,1646,330C1577.1,330,1509,330,1440,330C1371.4,330,1303,330,1234,330C1165.7,330,1097,330,1029,330C960,330,891,330,823,330C754.3,330,686,330,617,330C548.6,330,480,330,411,330C342.9,330,274,330,206,330C137.1,330,69,330,34,330L0,330Z"/></svg>