<svg width="100%" height="100%" id="svg" viewBox="0 0 1440 390" xmlns="http://www.w3.org/2000/svg" class="transition duration-300 ease-in-out delay-150"><defs><linearGradient id="gradient" x1="35%" y1="2%" x2="65%" y2="98%"><stop offset="5%" stop-color="#abb8c3"></stop><stop offset="95%" stop-color="#516482"></stop></linearGradient></defs><path d="M 0,400 C 0,400 0,133 0,133 C 24.2093671149292,150.921379137335 48.4187342298584,168.84275827467005 86,172 C 123.5812657701416,175.15724172532995 174.5344301954956,163.55034603865488 211,158 C 247.4655698045044,152.44965396134512 269.44354498815926,152.9558575707104 302,155 C 334.55645501184074,157.0441424292896 377.6913898518674,160.62622367850355 415,170 C 452.3086101481326,179.37377632149645 483.7908956043709,194.5392477152755 516,182 C 548.2091043956291,169.4607522847245 581.1450277306488,129.21678546039448 611,112 C 640.8549722693512,94.78321453960554 667.6289934730335,100.5936104431467 703,116 C 738.3710065269665,131.4063895568533 782.3389983772178,156.40877276701883 825,149 C 867.6610016227822,141.59122723298117 909.0150130180957,101.77129848877807 939,100 C 968.9849869819043,98.22870151122193 987.6009495503997,134.50603327786882 1019,158 C 1050.3990504496003,181.49396672213118 1094.5811887803052,192.2045683997465 1129,181 C 1163.4188112196948,169.7954316002535 1188.0742953283793,136.67569312314518 1219,122 C 1249.9257046716207,107.32430687685482 1287.1216299061773,111.0926591076728 1325,116 C 1362.8783700938227,120.9073408923272 1401.4391850469115,126.9536704461636 1440,133 C 1440,133 1440,400 1440,400 Z" stroke="none" stroke-width="0" fill="url(#gradient)" fill-opacity="0.53" class="transition-all duration-300 ease-in-out delay-150 path-0"></path><defs><linearGradient id="gradient" x1="35%" y1="2%" x2="65%" y2="98%"><stop offset="5%" stop-color="#abb8c3"></stop><stop offset="95%" stop-color="#516482"></stop></linearGradient></defs><path d="M 0,400 C 0,400 0,266 0,266 C 31.24870176740049,284.16614692849384 62.49740353480098,302.33229385698775 99,299 C 135.50259646519902,295.66770614301225 177.25908762819657,270.83697150054286 216,260 C 254.74091237180343,249.16302849945714 290.4662459524127,252.31982014084093 320,251 C 349.5337540475873,249.68017985915907 372.8759285621528,243.88374793609327 406,247 C 439.1240714378472,250.11625206390673 482.0300397989761,262.145188114786 519,261 C 555.9699602010239,259.854811885214 587.0039122419428,245.5354996047628 620,249 C 652.9960877580572,252.4645003952372 687.9543112332532,273.71281346616286 717,291 C 746.0456887667468,308.28718653383714 769.1788428250444,321.61324653058585 808,309 C 846.8211571749556,296.38675346941415 901.3303174665687,257.83420041149367 941,243 C 980.6696825334313,228.16579958850633 1005.4998873086818,237.0499518234395 1039,240 C 1072.5001126913182,242.9500481765605 1114.6701332987038,239.96599229474822 1147,256 C 1179.3298667012962,272.0340077052518 1201.8195794965027,307.08607899756777 1228,309 C 1254.1804205034973,310.91392100243223 1284.051548715285,279.68969171498065 1320,267 C 1355.948451284715,254.31030828501937 1397.9742256423574,260.1551541425097 1440,266 C 1440,266 1440,400 1440,400 Z" stroke="none" stroke-width="0" fill="url(#gradient)" fill-opacity="1" class="transition-all duration-300 ease-in-out delay-150 path-1"></path></svg>