<?xml version="1.0" standalone="no"?>
<svg xmlns:xlink="http://www.w3.org/1999/xlink" id="wave" style="transform:rotate(180deg); transition: 0.3s" viewBox="0 0 1440 320" version="1.1" xmlns="http://www.w3.org/2000/svg"><defs><linearGradient id="sw-gradient-0" x1="0" x2="0" y1="1" y2="0"><stop stop-color="rgba(52.998, 39.593, 35.288, 1)" offset="0%"/><stop stop-color="rgba(96.023, 140.845, 185.061, 1)" offset="100%"/></linearGradient></defs><path style="transform:translate(0, 0px); opacity:1" fill="url(#sw-gradient-0)" d="M0,64L34.3,74.7C68.6,85,137,107,206,144C274.3,181,343,235,411,250.7C480,267,549,245,617,240C685.7,235,754,245,823,213.3C891.4,181,960,107,1029,112C1097.1,117,1166,203,1234,240C1302.9,277,1371,267,1440,256C1508.6,245,1577,235,1646,229.3C1714.3,224,1783,224,1851,213.3C1920,203,1989,181,2057,192C2125.7,203,2194,245,2263,266.7C2331.4,288,2400,288,2469,272C2537.1,256,2606,224,2674,213.3C2742.9,203,2811,213,2880,186.7C2948.6,160,3017,96,3086,101.3C3154.3,107,3223,181,3291,192C3360,203,3429,149,3497,133.3C3565.7,117,3634,139,3703,154.7C3771.4,171,3840,181,3909,176C3977.1,171,4046,149,4114,149.3C4182.9,149,4251,171,4320,186.7C4388.6,203,4457,213,4526,218.7C4594.3,224,4663,224,4731,234.7C4800,245,4869,267,4903,277.3L4937.1,288L4937.1,320L4902.9,320C4868.6,320,4800,320,4731,320C4662.9,320,4594,320,4526,320C4457.1,320,4389,320,4320,320C4251.4,320,4183,320,4114,320C4045.7,320,3977,320,3909,320C3840,320,3771,320,3703,320C3634.3,320,3566,320,3497,320C3428.6,320,3360,320,3291,320C3222.9,320,3154,320,3086,320C3017.1,320,2949,320,2880,320C2811.4,320,2743,320,2674,320C2605.7,320,2537,320,2469,320C2400,320,2331,320,2263,320C2194.3,320,2126,320,2057,320C1988.6,320,1920,320,1851,320C1782.9,320,1714,320,1646,320C1577.1,320,1509,320,1440,320C1371.4,320,1303,320,1234,320C1165.7,320,1097,320,1029,320C960,320,891,320,823,320C754.3,320,686,320,617,320C548.6,320,480,320,411,320C342.9,320,274,320,206,320C137.1,320,69,320,34,320L0,320Z"/><defs><linearGradient id="sw-gradient-1" x1="0" x2="0" y1="1" y2="0"><stop stop-color="rgba(83.503, 115.986, 164.569, 1)" offset="0%"/><stop stop-color="rgba(80.322, 76.47, 67.956, 1)" offset="100%"/></linearGradient></defs><path style="transform:translate(0, 50px); opacity:0.9" fill="url(#sw-gradient-1)" d="M0,160L34.3,176C68.6,192,137,224,206,213.3C274.3,203,343,149,411,144C480,139,549,181,617,186.7C685.7,192,754,160,823,170.7C891.4,181,960,235,1029,250.7C1097.1,267,1166,245,1234,208C1302.9,171,1371,117,1440,128C1508.6,139,1577,213,1646,245.3C1714.3,277,1783,267,1851,229.3C1920,192,1989,128,2057,96C2125.7,64,2194,64,2263,90.7C2331.4,117,2400,171,2469,192C2537.1,213,2606,203,2674,192C2742.9,181,2811,171,2880,170.7C2948.6,171,3017,181,3086,154.7C3154.3,128,3223,64,3291,37.3C3360,11,3429,21,3497,26.7C3565.7,32,3634,32,3703,42.7C3771.4,53,3840,75,3909,90.7C3977.1,107,4046,117,4114,133.3C4182.9,149,4251,171,4320,197.3C4388.6,224,4457,256,4526,261.3C4594.3,267,4663,245,4731,213.3C4800,181,4869,139,4903,117.3L4937.1,96L4937.1,320L4902.9,320C4868.6,320,4800,320,4731,320C4662.9,320,4594,320,4526,320C4457.1,320,4389,320,4320,320C4251.4,320,4183,320,4114,320C4045.7,320,3977,320,3909,320C3840,320,3771,320,3703,320C3634.3,320,3566,320,3497,320C3428.6,320,3360,320,3291,320C3222.9,320,3154,320,3086,320C3017.1,320,2949,320,2880,320C2811.4,320,2743,320,2674,320C2605.7,320,2537,320,2469,320C2400,320,2331,320,2263,320C2194.3,320,2126,320,2057,320C1988.6,320,1920,320,1851,320C1782.9,320,1714,320,1646,320C1577.1,320,1509,320,1440,320C1371.4,320,1303,320,1234,320C1165.7,320,1097,320,1029,320C960,320,891,320,823,320C754.3,320,686,320,617,320C548.6,320,480,320,411,320C342.9,320,274,320,206,320C137.1,320,69,320,34,320L0,320Z"/></svg>