<?xml version="1.0" standalone="no"?>
<svg xmlns:xlink="http://www.w3.org/1999/xlink" id="wave" style="transform:rotate(0deg); transition: 0.3s" viewBox="0 0 1440 130" version="1.1" xmlns="http://www.w3.org/2000/svg"><defs><linearGradient id="sw-gradient-0" x1="0" x2="0" y1="1" y2="0"><stop stop-color="rgba(27, 33, 43, 1)" offset="0%"/><stop stop-color="rgba(66, 82, 106, 1)" offset="100%"/></linearGradient></defs><path style="transform:translate(0, 0px); opacity:1" fill="url(#sw-gradient-0)" d="M0,52L20,52C40,52,80,52,120,43.3C160,35,200,17,240,15.2C280,13,320,26,360,36.8C400,48,440,56,480,62.8C520,69,560,74,600,62.8C640,52,680,26,720,30.3C760,35,800,69,840,82.3C880,95,920,87,960,75.8C1000,65,1040,52,1080,45.5C1120,39,1160,39,1200,43.3C1240,48,1280,56,1320,58.5C1360,61,1400,56,1440,65C1480,74,1520,95,1560,91C1600,87,1640,56,1680,49.8C1720,43,1760,61,1800,75.8C1840,91,1880,104,1920,106.2C1960,108,2000,100,2040,86.7C2080,74,2120,56,2160,49.8C2200,43,2240,48,2280,58.5C2320,69,2360,87,2400,82.3C2440,78,2480,52,2520,43.3C2560,35,2600,43,2640,58.5C2680,74,2720,95,2760,88.8C2800,82,2840,48,2860,30.3L2880,13L2880,130L2860,130C2840,130,2800,130,2760,130C2720,130,2680,130,2640,130C2600,130,2560,130,2520,130C2480,130,2440,130,2400,130C2360,130,2320,130,2280,130C2240,130,2200,130,2160,130C2120,130,2080,130,2040,130C2000,130,1960,130,1920,130C1880,130,1840,130,1800,130C1760,130,1720,130,1680,130C1640,130,1600,130,1560,130C1520,130,1480,130,1440,130C1400,130,1360,130,1320,130C1280,130,1240,130,1200,130C1160,130,1120,130,1080,130C1040,130,1000,130,960,130C920,130,880,130,840,130C800,130,760,130,720,130C680,130,640,130,600,130C560,130,520,130,480,130C440,130,400,130,360,130C320,130,280,130,240,130C200,130,160,130,120,130C80,130,40,130,20,130L0,130Z"/></svg>